<?xml  version="1.0" encoding="UTF-8"?>
<!DOCTYPE svg PUBLIC "-//W3C//DTD SVG 1.0//EN" "http://www.w3.org/TR/2001/REC-SVG-20010904/DTD/svg10.dtd" >
<svg xmlns="http://www.w3.org/2000/svg" >
<metadata>
<version>1.0</version>
<id><![CDATA[Andale Mono W02 Regular]]></id>
<vendor>Monotype Imaging Inc.</vendor>
<credits>
<name>Fonts.com WebFonts</name>
<URL>http://webfonts.fonts.com</URL>
<role>Home of the Web fonts</role>
</credits>
<license>
<URL>http://webfonts.fonts.com/Legal</URL>
</license>
<copyright><![CDATA[Digitized data © 1993-2001 The Monotype Corporation. All Rights Reserved.]]></copyright>
<trademark><![CDATA[Andale®  is a trademark of The Monotype Corporation Registered in the U.S. Patent & Trademark Office and may be registered in certain jurisdictions.]]></trademark>
<licensee>
<name></name>
</licensee>
</metadata>
<defs >
<font horiz-adv-x="1229" id="0d61eb4f-4752-4bcc-b849-c1fdfed7d0bf">
<font-face font-family="" panose-1="2 11 6 9 0 0 0 0 0 4" ascent="1536" descent="-512" units-per-em="2048" alphabetic="0">
</font-face>
<missing-glyph horiz-adv-x="0" />

<glyph unicode="&#xA;" />
<glyph unicode="&#xD;" horiz-adv-x="0" />
<glyph unicode=" " />
<glyph unicode="!" d="M688 952L641 424H555L508 952V1411H688V952ZM602 229Q655 229 691 193T727 104Q727 51 691 12T602 -27Q551 -27 515 11T479 104Q479 158 514 193T602 229Z"  />
<glyph unicode="&quot;" d="M872 1171L836 891H756L719 1171V1411H872V1171ZM510 1171L473 891H393L356 1171V1411H510V1171Z"  />
<glyph unicode="#" d="M1147 397H829L745 0H604L688 397H420L336 0H195L279 397H88V528H307L383 887H88V1018H410L494 1411H635L551 1018H819L903 1411H1044L961 1018H1147V887H934L858 528H1147V397ZM793 887H524L449 528H717L793 887Z"  />
<glyph unicode="$" d="M682 809Q871 728 946 630T1022 406Q1022 248 932 138T682 -12V-141H565V-27H557Q375 -27 238 45L272 186Q433 113 553 113H565V696Q350 788 289 877T227 1067Q227 1209 316 1305T565 1430V1536H682V1438Q819 1438 952 1395L915 1255Q793 1298 682 1298V809ZM565 864V1284Q387 1237 387 1073Q387 952 565 864ZM682 131Q862 196 862 385Q862 469 820 528T682 639V131Z"  />
<glyph unicode="%" d="M330 1438Q463 1438 537 1345T612 1104Q612 956 537 863T330 770Q199 770 123 863T47 1104Q47 1248 123 1343T330 1438ZM330 891Q469 891 469 1104Q469 1317 330 1317Q190 1317 190 1104Q190 891 330 891ZM1053 1411L307 0H168L913 1411H1053ZM897 641Q1030 641 1105 549T1180 307Q1180 160 1105 67T897 -27Q766 -27 690 67T614 307Q614 452 690 546T897 641ZM897 94Q1036 94 1036 307Q1036 520 897 520Q758 520 758 307Q758 94 897 94Z"  />
<glyph unicode="&amp;" d="M1227 8Q1183 -10 1118 -10Q1065 -10 1013 27T879 174Q723 -27 502 -27Q325 -27 203 85T80 365Q80 472 144 567T383 784Q217 979 217 1124Q217 1264 309 1351T543 1438Q674 1438 759 1364T844 1157Q844 1062 786 975T569 772L864 408Q932 582 965 650T1060 767T1217 817H1225V680H1217Q1156 680 1100 615T952 297Q1027 207 1069 168T1163 129Q1187 129 1227 135V8ZM496 866Q614 948 660 1011T707 1145Q707 1223 660 1263T545 1303Q467 1303 415 1256T362 1124Q362 1016 496 866ZM795 276L459 690Q341 604 293 532T244 371Q244 261 321 186T506 111Q673 111 795 276Z"  />
<glyph unicode="&apos;" d="M692 1171L655 891H575L539 1171V1411H692V1171Z"  />
<glyph unicode="(" d="M958 -209L897 -295Q674 -126 557 98T440 571Q440 822 556 1044T897 1436L958 1350Q775 1186 695 1007T614 573Q614 310 697 131T958 -209Z"  />
<glyph unicode=")" d="M332 1436Q556 1267 672 1045T788 571Q788 322 672 98T332 -295L270 -209Q453 -47 533 135T614 573Q614 836 531 1013T270 1350L332 1436Z"  />
<glyph unicode="*" d="M967 858L907 758L670 915V629H559V915L319 756L260 858L512 1022L260 1186L319 1286L559 1126V1411H670V1128L907 1286L967 1186L719 1022L967 858Z"  />
<glyph unicode="+" d="M1087 657H682V248H551V657H141V788H551V1198H682V788H1087V657Z"  />
<glyph unicode="&#x2c;" d="M616 -27Q564 -21 530 16T496 100Q496 151 529 186T612 221Q668 221 709 176T750 66Q750 -130 532 -240L494 -168Q616 -108 616 -27Z"  />
<glyph unicode="-" d="M901 487H307V639H901V487Z"  />
<glyph unicode="." d="M608 229Q661 229 697 193T733 104Q733 50 697 12T608 -27Q557 -27 521 11T485 104Q485 158 520 193T608 229Z"  />
<glyph unicode="/" d="M975 1438L362 -27H215L825 1438H975Z"  />
<glyph unicode="0" d="M612 1438Q836 1438 956 1246T1077 705Q1077 368 960 171T612 -27Q389 -27 268 165T147 705Q147 1043 264 1240T612 1438ZM612 117Q760 117 831 257T903 705Q903 1013 832 1152T612 1292Q466 1292 394 1149T322 705Q322 400 393 259T612 117ZM608 855Q671 855 714 812T758 705Q758 640 714 594T608 547Q547 547 504 593T460 705Q460 769 502 812T608 855Z"  />
<glyph unicode="1" d="M1018 0H276V143H575V1239L293 1098V1262L598 1419H739V143H1018V0Z"  />
<glyph unicode="2" d="M981 0H205V119Q500 448 588 560T731 795T786 1040Q786 1158 715 1226T514 1294Q415 1294 248 1233L225 1374Q376 1438 541 1438Q730 1438 845 1332T961 1047Q961 920 902 795T749 555T387 143H981V0Z"  />
<glyph unicode="3" d="M702 758Q831 722 909 627T987 412Q987 226 842 100T500 -27Q332 -27 199 47L231 182Q370 117 506 117Q634 117 724 196T815 401Q815 524 718 601T461 678H418V813H430Q584 813 684 885T784 1081Q784 1181 712 1237T514 1294Q405 1294 270 1235L248 1376Q384 1438 522 1438Q711 1438 833 1339T956 1083Q956 975 882 882T702 764V758Z"  />
<glyph unicode="4" d="M1073 326H899V0H735V326H121V451L678 1411H899V469H1073V326ZM735 469V1249L287 469H735Z"  />
<glyph unicode="5" d="M434 842Q502 860 567 860Q767 860 883 738T999 432Q999 240 864 107T535 -27Q350 -27 225 35L258 174Q394 117 539 117Q668 117 747 200T827 432Q827 573 752 649T559 725Q473 725 389 692L291 737V1411H936V1268H434V842Z"  />
<glyph unicode="6" d="M362 735Q494 842 649 842Q828 842 947 728T1067 432Q1067 233 961 103T678 -27Q452 -27 320 180T188 688Q188 1008 325 1223T702 1438Q867 1438 987 1389L961 1243Q822 1294 707 1294Q544 1294 453 1138T362 735ZM367 594Q367 413 452 265T666 117Q775 117 834 197T893 418Q893 548 828 623T645 698Q492 698 367 594Z"  />
<glyph unicode="7" d="M1036 1294L477 0H309L860 1268H199V1411H1036V1294Z"  />
<glyph unicode="8" d="M756 774Q900 732 979 631T1059 395Q1059 201 931 87T614 -27Q417 -27 291 88T164 393Q164 527 246 629T475 774Q358 804 288 889T217 1081Q217 1217 325 1327T610 1438Q785 1438 899 1328T1014 1081Q1014 978 942 892T756 774ZM610 842Q615 842 658 854T731 883T788 928T830 991T846 1073Q846 1169 777 1232T610 1296Q515 1296 447 1231T379 1073Q379 1014 403 970T464 899T548 857T610 842ZM610 702Q336 622 336 401Q336 272 419 195T614 117Q730 117 809 193T889 401Q889 500 834 578T610 702Z"  />
<glyph unicode="9" d="M883 678Q761 571 596 571Q417 571 298 685T178 981Q178 1175 292 1307T588 1440Q809 1440 933 1238T1057 725Q1057 414 912 195T522 -25Q358 -25 238 25L264 170Q402 119 518 119Q684 119 783 280T883 678ZM879 819Q879 1009 802 1152T600 1296Q487 1296 420 1213T352 995Q352 872 420 794T600 715Q753 715 866 809L879 819Z"  />
<glyph unicode=":" d="M606 1057Q657 1057 692 1023T727 938Q727 888 692 854T606 819Q556 819 522 853T487 938Q487 988 521 1022T606 1057ZM606 221Q657 221 692 187T727 102Q727 52 692 18T606 -16Q556 -16 522 18T487 102Q487 153 521 187T606 221Z"  />
<glyph unicode=";" d="M614 1057Q665 1057 700 1023T735 938Q735 887 700 853T614 819Q564 819 530 853T496 938Q496 988 530 1022T614 1057ZM616 -27Q564 -21 530 16T496 100Q496 151 529 186T612 221Q668 221 709 176T750 66Q750 -130 532 -240L494 -168Q616 -108 616 -27Z"  />
<glyph unicode="&lt;" d="M975 215L227 664V784L975 1229V1085L375 719L975 362V215Z"  />
<glyph unicode="=" d="M1087 858H141V989H1087V858ZM1087 457H141V588H1087V457Z"  />
<glyph unicode="&gt;" d="M1014 664L266 215V362L866 719L266 1085V1229L1014 784V664Z"  />
<glyph unicode="?" d="M240 1358Q417 1438 557 1438Q746 1438 849 1353T952 1102Q952 930 729 745Q632 665 611 639T576 574T563 479V424H426V481Q426 655 537 752L669 868Q733 922 763 977T793 1096Q793 1200 727 1255T547 1311Q444 1311 287 1237L240 1358ZM512 229Q565 229 601 193T637 104Q637 50 601 12T512 -27Q461 -27 425 11T389 104Q389 158 424 193T512 229Z"  />
<glyph unicode="@" d="M969 -78Q818 -162 643 -162Q401 -162 250 35T98 567Q98 968 247 1199T639 1430Q863 1430 1004 1248T1145 756Q1145 525 1053 374T813 223Q712 223 684 342Q627 223 522 223Q446 223 395 303T344 512Q344 714 430 849T645 985Q695 985 748 948L752 973H877Q817 434 817 395Q817 368 828 350T858 332Q925 332 980 451T1036 756Q1036 1020 928 1173T639 1327Q445 1327 326 1124T207 567Q207 283 327 113T643 -57Q804 -57 946 12L969 -78ZM733 840Q703 877 651 877Q569 877 520 781T471 526Q471 435 496 384T559 332Q616 332 653 387T692 465L733 840Z"  />
<glyph unicode="A" d="M1176 0H1004L848 494H385L227 0H57L518 1411H715L1176 0ZM801 637L616 1221L432 637H801Z"  />
<glyph unicode="B" d="M784 774Q925 741 1005 646T1085 420Q1085 228 946 114T610 0H209V1411H600Q804 1411 919 1322T1034 1069Q1034 969 968 891T784 778V774ZM373 850H565Q866 850 866 1065Q866 1163 792 1215T575 1268H373V850ZM373 143H559Q722 143 817 217T913 420Q913 557 819 632T547 707H373V143Z"  />
<glyph unicode="C" d="M1071 88Q905 -27 686 -27Q412 -27 270 161T127 705Q127 1049 265 1243T686 1438Q788 1438 888 1412T1049 1343L995 1214Q854 1294 686 1294Q491 1294 396 1153T301 705Q301 117 686 117Q849 117 1020 217L1071 88Z"  />
<glyph unicode="D" d="M209 1411H487Q764 1411 931 1223T1098 705Q1098 369 929 185T494 0H209V1411ZM373 143H489Q690 143 807 292T924 705Q924 967 807 1117T489 1268H373V143Z"  />
<glyph unicode="E" d="M993 0H256V1411H987V1268H420V831H965V688H420V143H993V0Z"  />
<glyph unicode="F" d="M1004 1268H420V807H952V664H420V0H256V1411H1004V1268Z"  />
<glyph unicode="G" d="M1069 100Q896 -27 686 -27Q411 -27 269 159T127 705Q127 1052 264 1245T686 1438Q788 1438 888 1412T1049 1343L995 1214Q854 1294 686 1294Q492 1294 397 1152T301 705Q301 117 686 117Q831 117 905 178V526H651V668H1069V100Z"  />
<glyph unicode="H" d="M1020 0H856V700H373V0H209V1411H373V844H856V1411H1020V0Z"  />
<glyph unicode="I" d="M928 0H287V143H530V1268H287V1411H928V1268H694V143H928V0Z"  />
<glyph unicode="J" d="M866 375Q866 181 765 77T467 -27Q296 -27 156 45L205 176Q324 117 467 117Q591 117 646 182T702 387V1411H866V375Z"  />
<glyph unicode="K" d="M1206 0H999L522 692L373 530V0H209V1411H373V735L999 1411H1188L637 815L1206 0Z"  />
<glyph unicode="L" d="M1024 0H256V1411H420V143H1024V0Z"  />
<glyph unicode="M" d="M1069 0H911V1210L698 631H543L330 1210V0H172V1411H385L621 768L856 1411H1069V0Z"  />
<glyph unicode="N" d="M1040 0H858L352 1114V0H188V1411H371L879 307V1411H1040V0Z"  />
<glyph unicode="O" d="M612 1438Q849 1438 973 1251T1098 705Q1098 349 974 161T612 -27Q376 -27 252 160T127 705Q127 1062 251 1250T612 1438ZM612 117Q924 117 924 705Q924 1294 612 1294Q460 1294 381 1142T301 705Q301 418 380 268T612 117Z"  />
<glyph unicode="P" d="M256 1411H614Q817 1411 939 1309T1061 1028Q1061 848 940 741T621 633H420V0H256V1411ZM420 776H598Q887 776 887 1018Q887 1130 809 1199T606 1268H420V776Z"  />
<glyph unicode="Q" d="M1135 -233Q1048 -260 963 -260Q743 -260 678 -20Q639 -27 612 -27Q376 -27 252 160T127 705Q127 1062 251 1250T612 1438Q849 1438 973 1251T1098 705Q1098 185 838 29Q875 -117 979 -117Q1037 -117 1106 -102L1135 -233ZM612 117Q924 117 924 705Q924 1294 612 1294Q460 1294 381 1142T301 705Q301 418 380 268T612 117Z"  />
<glyph unicode="R" d="M1174 0H969L555 641H373V0H209V1411H608Q809 1411 925 1314T1042 1042Q1042 913 957 813T723 676L1174 0ZM373 784H580Q710 784 791 854T872 1032Q872 1268 584 1268H373V784Z"  />
<glyph unicode="S" d="M915 1255Q789 1298 676 1298Q548 1298 468 1240T387 1073Q387 945 598 848Q754 776 804 748T907 671T990 556T1022 406Q1022 200 884 87T557 -27Q375 -27 238 45L272 186Q433 113 553 113Q693 113 777 185T862 385Q862 479 807 544T604 678Q452 748 408 773T319 844T251 945T227 1067Q227 1242 353 1340T672 1438Q813 1438 952 1395L915 1255Z"  />
<glyph unicode="T" d="M1133 1278H698V0H535V1278H98V1411H1133V1278Z"  />
<glyph unicode="U" d="M1020 444Q1020 199 921 86T618 -27Q209 -27 209 440V1411H373V455Q373 117 618 117Q741 117 798 197T856 457V1411H1020V444Z"  />
<glyph unicode="V" d="M1171 1411L711 0H514L53 1411H225L612 190L1001 1411H1171Z"  />
<glyph unicode="W" d="M1186 1411L1006 0H854L614 795L375 0H219L43 1411H205L324 264L532 958H696L905 262L1026 1411H1186Z"  />
<glyph unicode="X" d="M1163 0H981L623 578L268 0H86L537 719L88 1411H276L623 852L973 1411H1153L711 719L1163 0Z"  />
<glyph unicode="Y" d="M1139 1411L698 604V0H535V604L94 1411H279L616 776L954 1411H1139Z"  />
<glyph unicode="Z" d="M1040 1294L369 143H1028V0H182V115L850 1268H211V1411H1040V1294Z"  />
<glyph unicode="[" d="M911 -270H522V1411H911V1274H678V-135H911V-270Z"  />
<glyph unicode="\" d="M973 -27H825L213 1438H362L973 -27Z"  />
<glyph unicode="]" d="M678 -266H279V-131H522V1276H279V1411H678V-266Z"  />
<glyph unicode="^" d="M1124 788H981L614 1389L258 788H111L559 1536H680L1124 788Z"  />
<glyph unicode="_" d="M1229 -446H0V-315H1229V-446Z"  />
<glyph unicode="`" d="M772 1165H659L348 1466H573L772 1165Z"  />
<glyph unicode="a" d="M1044 0H889Q870 63 870 168Q737 -27 508 -27Q392 -27 304 55T215 268Q215 345 246 404T337 503T483 567T687 600L862 614V664Q862 932 612 932Q553 932 463 907T307 846L266 958Q479 1067 662 1067Q1018 1067 1018 690V242Q1018 106 1044 0ZM862 309V498Q651 479 573 463T437 401T379 279Q379 209 428 166T553 123Q636 123 718 172T862 309Z"  />
<glyph unicode="b" d="M371 907Q423 979 511 1023T698 1067Q880 1067 981 921T1083 537Q1083 296 975 135T686 -27Q589 -27 505 21T371 150V0H215V1411H371V907ZM371 752V319Q415 231 490 172T645 113Q771 113 845 233T920 528Q920 708 849 820T651 932Q486 932 371 752Z"  />
<glyph unicode="c" d="M1014 35Q878 -27 715 -27Q469 -27 323 122T176 520Q176 768 323 917T711 1067Q868 1067 1010 1012L969 883Q827 932 713 932Q541 932 441 821T340 520Q340 346 444 228T715 109Q847 109 987 160L1014 35Z"  />
<glyph unicode="d" d="M1014 0H858V150Q810 73 721 23T532 -27Q353 -27 249 132T145 537Q145 766 253 916T541 1067Q738 1067 858 907V1411H1014V0ZM858 319V752Q746 932 588 932Q459 932 384 818T309 528Q309 348 379 231T573 113Q632 113 692 145T805 241T858 319Z"  />
<glyph unicode="e" d="M1049 516H334Q334 339 436 224T688 109Q830 109 981 160L1008 35Q870 -27 686 -27Q454 -27 312 122T170 524Q170 772 297 919T627 1067Q807 1067 928 930T1049 565V516ZM879 643Q879 765 803 848T633 932Q512 932 433 852T344 643H879Z"  />
<glyph unicode="f" d="M1028 1395L987 1268Q876 1300 788 1300Q704 1300 673 1253T641 1061V1042H991V907H641V0H485V907H223V1042H485V1077Q485 1276 553 1356T788 1436Q896 1436 1028 1395Z"  />
<glyph unicode="g" d="M504 393Q358 322 358 268Q358 239 391 219T483 199L834 209Q959 209 1028 148T1098 -25Q1098 -202 940 -307T571 -412Q398 -412 288 -340T178 -152Q178 -27 348 59Q207 125 207 221Q207 331 389 426Q305 477 260 558T215 729Q215 876 315 970T565 1065Q673 1065 760 1020L1069 1067V915H870Q915 836 915 729Q915 587 816 489T565 391Q533 391 504 393ZM565 512Q651 512 705 571T760 727Q760 828 707 885T565 942Q482 942 426 883T369 727Q369 633 425 573T565 512ZM571 -291Q725 -291 833 -223T942 -53Q942 51 788 51Q737 51 612 45Q533 41 488 41Q466 41 420 5T349 -67T324 -143Q324 -204 392 -247T571 -291Z"  />
<glyph unicode="h" d="M1018 0H862V668Q862 807 818 869T678 932Q535 932 371 754V0H215V1411H371V889Q539 1067 725 1067Q1018 1067 1018 713V0Z"  />
<glyph unicode="i" d="M682 1436Q726 1436 757 1405T788 1329Q788 1283 758 1252T682 1221Q641 1221 610 1253T578 1329Q578 1372 609 1404T682 1436ZM758 0H602V907H295V1042H758V0Z"  />
<glyph unicode="j" d="M682 1436Q726 1436 757 1405T788 1329Q788 1283 758 1252T682 1221Q641 1221 610 1253T578 1329Q578 1372 609 1404T682 1436ZM758 -53Q758 -249 691 -330T455 -412Q347 -412 215 -371L256 -244Q367 -276 455 -276Q539 -276 570 -229T602 -37V907H295V1042H758V-53Z"  />
<glyph unicode="k" d="M1120 0H915L473 518L371 430V0H215V1411H371V602L860 1042H1059L584 616L1120 0Z"  />
<glyph unicode="l" d="M942 0H516V1276H244V1411H672V135H942V0Z"  />
<glyph unicode="m" d="M1100 0H944V684Q944 932 852 932Q805 932 749 847T692 752V0H537V684Q537 932 444 932Q398 932 342 847T285 752V0H129V1042H279V885Q323 968 383 1017T504 1067Q567 1067 617 1018T686 885Q730 968 791 1017T911 1067Q1100 1067 1100 729V0Z"  />
<glyph unicode="n" d="M1018 0H862V668Q862 807 818 869T678 932Q535 932 371 754V0H215V1042H371V889Q539 1067 725 1067Q1018 1067 1018 713V0Z"  />
<glyph unicode="o" d="M614 1067Q829 1067 956 917T1083 522Q1083 275 956 124T614 -27Q398 -27 272 123T145 522Q145 768 272 917T614 1067ZM614 109Q756 109 838 229T920 520Q920 700 839 816T614 932Q469 932 389 818T309 520Q309 346 390 228T614 109Z"  />
<glyph unicode="p" d="M371 907Q423 979 511 1023T698 1067Q878 1067 980 919T1083 532Q1083 292 976 133T686 -27Q589 -27 505 21T371 150V-412H215V1042H371V907ZM371 752V319Q415 231 490 172T645 113Q771 113 845 231T920 524Q920 704 849 818T651 932Q486 932 371 752Z"  />
<glyph unicode="q" d="M1014 -412H858V150Q810 73 721 23T532 -27Q353 -27 249 130T145 530Q145 763 253 915T541 1067Q738 1067 858 907V1042H1014V-412ZM858 319V752Q746 932 588 932Q459 932 384 815T309 522Q309 343 379 228T573 113Q632 113 692 145T805 241T858 319Z"  />
<glyph unicode="r" d="M1034 1014L971 864Q868 909 793 909Q724 909 658 870T537 757T481 674V0H326V1042H481V831Q606 1067 805 1067Q923 1067 1034 1014Z"  />
<glyph unicode="s" d="M909 893Q778 936 662 936Q535 936 461 894T387 780Q387 735 421 702T557 639L706 596Q809 567 874 527T971 429T1004 295Q1004 146 879 60T561 -27Q369 -27 244 31L274 166Q405 104 555 104Q685 104 766 152T848 281Q848 335 808 377T617 466Q496 503 439 521T333 576T259 662T233 774Q233 909 351 988T664 1067Q790 1067 944 1024L909 893Z"  />
<glyph unicode="t" d="M1028 47Q871 -25 719 -25Q440 -25 440 270V907H240V1042H440V1327H592V1042H946V907H592V311Q592 216 634 164T748 111Q876 111 1001 168L1028 47Z"  />
<glyph unicode="u" d="M1016 0H860V154Q692 -25 506 -25Q213 -25 213 330V1042H369V375Q369 242 411 177T553 111Q696 111 860 289V1042H1016V0Z"  />
<glyph unicode="v" d="M1065 1042L670 0H528L135 1042H305L600 213L895 1042H1065Z"  />
<glyph unicode="w" d="M1141 1042L991 0H872L627 590L381 0H262L115 1042H270Q353 312 356 276L547 729H707L897 279L981 1042H1141Z"  />
<glyph unicode="x" d="M1055 0H879L600 408L311 0H145L516 522L145 1042H324L604 637L889 1042H1055L686 528L1055 0Z"  />
<glyph unicode="y" d="M1065 1042L670 0Q584 -230 500 -321T307 -412Q211 -412 117 -377L143 -252Q219 -276 279 -276Q363 -276 417 -211T526 2L135 1042H305L600 211L895 1042H1065Z"  />
<glyph unicode="z" d="M1004 0H203V84L797 905H217V1042H1004V965L410 137H1004V0Z"  />
<glyph unicode="{" d="M915 -342H836Q692 -342 629 -265T565 23V119Q565 306 516 379T358 453V616Q467 616 516 689T565 950V1047Q565 1256 628 1333T836 1411H915V1280H885Q792 1280 756 1240T719 1049V985Q719 778 671 680T508 535Q623 487 671 389T719 84V20Q719 -131 755 -171T885 -211H915V-342Z"  />
<glyph unicode="|" d="M686 -383H532V1411H686V-383Z"  />
<glyph unicode="}" d="M866 453Q758 453 709 380T659 119V23Q659 -187 596 -264T389 -342H309V-211H340Q433 -211 469 -171T506 20V84Q506 291 554 389T717 535Q602 582 554 680T506 985V1049Q506 1200 470 1240T340 1280H309V1411H389Q533 1411 596 1334T659 1047V950Q659 781 703 699T866 616V453Z"  />
<glyph unicode="~" d="M1155 512Q1000 381 856 381Q772 381 600 459Q424 537 350 537Q233 537 59 399V543Q217 674 365 674Q451 674 623 596Q795 518 868 518Q985 518 1155 655V512Z"  />
<glyph unicode="&#xA0;" />
<glyph unicode="&#xA1;" d="M623 1067Q674 1067 709 1029T745 936Q745 883 710 847T623 811Q570 811 534 847T498 936Q498 990 534 1028T623 1067ZM717 -371H537V88L584 616H670L717 88V-371Z"  />
<glyph unicode="&#xA2;" d="M1034 35Q908 -23 756 -27V-207H639V-20Q429 11 313 156T197 520Q197 737 314 883T639 1061V1247H756V1067Q900 1064 1030 1012L989 883Q866 926 756 932V109Q882 114 1008 160L1034 35ZM639 119V922Q505 892 433 786T360 520Q360 376 434 265T639 119Z"  />
<glyph unicode="&#xA3;" d="M1112 78Q997 -20 854 -20Q775 -20 650 40Q536 96 469 96Q342 96 211 -10V147Q323 233 340 295T358 414V631H162V764H358V934Q358 1191 453 1313T752 1436Q897 1436 1018 1382L981 1249Q866 1292 754 1292Q633 1292 578 1206T522 932V764H774V631H522V432Q522 316 461 252Q554 252 687 188Q799 135 864 135Q985 135 1112 246V78Z"  />
<glyph unicode="&#xA4;" d="M1157 266L1042 170L856 377Q742 309 612 309Q488 309 371 377L186 170L72 266L256 477Q150 608 150 772Q150 940 256 1067L72 1280L186 1380L371 1169Q479 1239 612 1235Q686 1235 738 1219T856 1169L1042 1380L1157 1280L973 1067Q1077 930 1077 772Q1077 611 973 477L1157 266ZM612 467Q739 467 830 557T922 774Q922 901 831 991T612 1081Q485 1081 395 991T305 774Q305 647 395 557T612 467Z"  />
<glyph unicode="&#xA5;" d="M1139 1411L750 694H1090V563H698V420H1090V289H698V-4H535V289H143V420H535V563H143V694H483L94 1411H279L616 772L954 1411H1139Z"  />
<glyph unicode="&#xA6;" d="M686 651H532V1411H686V651ZM686 -412H532V348H686V-412Z"  />
<glyph unicode="&#xA7;" d="M920 1262Q790 1300 678 1300Q545 1300 468 1252T391 1112Q391 985 602 909Q765 850 819 824T922 752T999 648T1026 516Q1026 334 860 219Q989 106 989 -39Q989 -215 856 -320T528 -426Q356 -426 205 -352L238 -217Q389 -287 520 -287Q662 -287 744 -226T827 -57Q827 35 769 96T575 209Q421 267 376 289T285 352T215 444T190 559Q190 651 245 726T401 844Q227 942 227 1106Q227 1257 351 1347T674 1438Q821 1438 956 1399L920 1262ZM741 309Q866 371 866 498Q866 538 856 571T821 635T752 692T639 745T565 770Q496 770 423 712T350 561Q350 508 399 463T542 383T741 309Z"  />
<glyph unicode="&#xA8;" d="M813 1407Q858 1407 888 1376T918 1298Q918 1255 887 1223T813 1190Q768 1190 737 1222T705 1298Q705 1345 736 1376T813 1407ZM418 1407Q464 1407 494 1377T524 1298Q524 1254 493 1222T418 1190Q374 1190 342 1222T309 1298Q309 1345 341 1376T418 1407Z"  />
<glyph unicode="&#xA9;" d="M614 1438Q864 1438 1041 1261T1219 836Q1219 585 1042 407T614 229Q364 229 187 407T10 836Q10 1086 186 1262T614 1438ZM614 340Q820 340 966 485T1112 836Q1112 1040 966 1185T614 1331Q410 1331 265 1186T119 836Q119 630 264 485T614 340ZM823 578Q731 510 631 510Q501 510 424 602T346 838Q346 991 421 1079T631 1167Q720 1167 811 1118L776 1024Q709 1061 631 1061Q549 1061 511 1009T473 838Q473 616 631 616Q704 616 791 670L823 578Z"  />
<glyph unicode="&#xAA;" d="M877 797H741Q733 835 733 879Q696 836 637 808T526 780Q447 780 393 833T338 971Q338 1157 727 1174V1192Q727 1262 691 1297T598 1333Q512 1333 406 1278L365 1368Q519 1438 627 1438Q860 1438 860 1204V952Q860 884 877 797ZM727 977V1096Q574 1089 526 1056T477 971Q477 934 502 910T561 885Q658 885 727 977Z"  />
<glyph unicode="&#xAB;" d="M1051 139L958 59L578 502V623L958 1063L1051 983L692 561L1051 139ZM649 139L557 59L176 502V623L557 1063L649 983L291 561L649 139Z"  />
<glyph unicode="&#xAC;" d="M1087 498H956V858H141V989H1087V498Z"  />
<glyph unicode="&#xAD;" d="M901 487H307V639H901V487Z"  />
<glyph unicode="&#xAE;" d="M614 1438Q864 1438 1041 1261T1219 836Q1219 585 1042 407T614 229Q364 229 187 407T10 836Q10 1086 186 1262T614 1438ZM614 340Q820 340 966 485T1112 836Q1112 1040 966 1185T614 1331Q410 1331 265 1186T119 836Q119 630 264 485T614 340ZM922 512H778L608 770H530V512H403V1165H608Q711 1165 777 1113T844 973Q844 851 719 801L922 512ZM530 874H598Q721 874 721 969Q721 1059 604 1059H530V874Z"  />
<glyph unicode="&#xAF;" d="M1229 1726H0V1858H1229V1726Z"  />
<glyph unicode="&#xB0;" d="M612 1438Q727 1438 808 1357T889 1161Q889 1047 808 966T612 885Q498 885 417 966T336 1161Q336 1276 417 1357T612 1438ZM612 991Q683 991 732 1041T782 1161Q782 1231 733 1280T612 1329Q542 1329 493 1281T444 1161Q444 1091 493 1041T612 991Z"  />
<glyph unicode="&#xB1;" d="M1087 657H682V248H551V657H141V788H551V1198H682V788H1087V657ZM1087 0H141V131H1087V0Z"  />
<glyph unicode="&#xB2;" d="M825 698H393L395 782Q605 1009 644 1078T684 1208Q684 1255 654 1282T569 1309Q525 1309 418 1274L401 1380Q492 1417 584 1417Q689 1417 752 1362T815 1212Q815 1156 774 1080T547 807H825V698Z"  />
<glyph unicode="&#xB3;" d="M653 1075Q718 1065 762 1019T807 913Q807 817 728 751T541 684Q450 684 367 733L393 836Q477 795 545 795Q599 795 637 826T676 907Q676 957 634 988T522 1020H477V1122H506Q574 1122 618 1150T662 1229Q662 1309 549 1309Q496 1309 408 1274L391 1380Q477 1417 553 1417Q657 1417 725 1365T793 1231Q793 1177 755 1135T653 1077V1075Z"  />
<glyph unicode="&#xB4;" d="M883 1466L571 1165H459L657 1466H883Z"  />
<glyph unicode="&#xB5;" d="M1016 0H860V154Q692 -25 506 -25Q425 -25 369 2V-338H213V1042H369V375Q369 242 411 177T553 111Q696 111 860 289V1042H1016V0Z"  />
<glyph unicode="&#xB6;" d="M1137 1305H987V-350H870V1305H633V-350H514V551Q349 551 195 671T41 967Q41 1171 180 1291T551 1411H1137V1305Z"  />
<glyph unicode="&#xB7;" d="M608 803Q661 803 697 767T733 678Q733 624 697 586T608 547Q557 547 521 585T485 678Q485 731 520 767T608 803Z"  />
<glyph unicode="&#xB8;" d="M637 -53Q756 -81 756 -178Q756 -265 692 -316T530 -367Q490 -367 449 -360V-264Q483 -268 504 -268Q559 -268 597 -246T635 -195Q635 -129 508 -129L553 0H653L637 -53Z"  />
<glyph unicode="&#xB9;" d="M817 698H401V807H551V1274L410 1204V1327L580 1411H678V807H817V698Z"  />
<glyph unicode="&#xBA;" d="M602 1438Q738 1438 819 1348T901 1112Q901 965 819 874T602 782Q465 782 384 872T303 1112Q303 1256 383 1347T602 1438ZM602 887Q675 887 718 951T762 1110Q762 1333 602 1333Q528 1333 485 1272T442 1110Q442 1015 485 951T602 887Z"  />
<glyph unicode="&#xBB;" d="M1051 502L670 59L578 139L936 561L578 983L670 1063L1051 623V502ZM649 502L268 59L176 139L535 561L176 983L268 1063L649 623V502Z"  />
<glyph unicode="&#xBC;" d="M474 698H58V807H208V1274L67 1204V1327L237 1411H335V807H474V698ZM995 1411L352 0H236L877 1411H995ZM1149 161H1063V1H936V161H629V247L915 714H1063V272H1149V161ZM936 272V554L762 272H936Z"  />
<glyph unicode="&#xBD;" d="M474 698H58V807H208V1274L67 1204V1327L237 1411H335V807H474V698ZM995 1411L352 0H236L877 1411H995ZM1182 1H750L752 85Q962 312 1001 381T1041 511Q1041 558 1011 585T926 612Q882 612 775 577L758 683Q849 720 941 720Q1046 720 1109 665T1172 515Q1172 459 1131 383T904 110H1182V1Z"  />
<glyph unicode="&#xBE;" d="M346 1075Q411 1065 455 1019T500 913Q500 817 421 751T234 684Q143 684 60 733L86 836Q170 795 238 795Q292 795 330 826T369 907Q369 957 327 988T215 1020H170V1122H199Q267 1122 311 1150T355 1229Q355 1309 242 1309Q189 1309 101 1274L84 1380Q170 1417 246 1417Q350 1417 418 1365T486 1231Q486 1177 448 1135T346 1077V1075ZM995 1411L352 0H236L877 1411H995ZM1149 161H1063V1H936V161H629V247L915 714H1063V272H1149V161ZM936 272V554L762 272H936Z"  />
<glyph unicode="&#xBF;" d="M721 1067Q772 1067 808 1029T844 936Q844 882 809 847T721 811Q668 811 632 847T596 936Q596 990 632 1028T721 1067ZM993 -317Q816 -397 676 -397Q487 -397 384 -312T281 -61Q281 111 503 295Q601 375 622 401T656 466T670 561V616H807V559Q807 385 696 289L563 173Q500 118 470 63T440 -55Q440 -160 506 -215T686 -270Q789 -270 946 -197L993 -317Z"  />
<glyph unicode="&#xC0;" d="M1176 0H1004L848 494H385L227 0H57L518 1411H715L1176 0ZM801 637L616 1221L432 637H801ZM776 1534H663L352 1835H577L776 1534Z"  />
<glyph unicode="&#xC1;" d="M1176 0H1004L848 494H385L227 0H57L518 1411H715L1176 0ZM801 637L616 1221L432 637H801ZM880 1835L568 1534H456L654 1835H880Z"  />
<glyph unicode="&#xC2;" d="M1176 0H1004L848 494H385L227 0H57L518 1411H715L1176 0ZM801 637L616 1221L432 637H801ZM932 1534H819L621 1727L422 1534H309L508 1835H733L932 1534Z"  />
<glyph unicode="&#xC3;" d="M1176 0H1004L848 494H385L227 0H57L518 1411H715L1176 0ZM801 637L616 1221L432 637H801ZM976 1782Q942 1552 784 1552Q728 1552 610 1609Q509 1657 468 1657Q429 1657 400 1627T364 1552H280Q314 1782 472 1782Q528 1782 646 1725Q747 1677 788 1677Q827 1677 856 1707T892 1782H976Z"  />
<glyph unicode="&#xC4;" d="M1176 0H1004L848 494H385L227 0H57L518 1411H715L1176 0ZM801 637L616 1221L432 637H801ZM813 1759Q858 1759 888 1728T918 1650Q918 1607 887 1575T813 1542Q768 1542 737 1574T705 1650Q705 1697 736 1728T813 1759ZM418 1759Q464 1759 494 1729T524 1650Q524 1606 493 1574T418 1542Q374 1542 342 1574T309 1650Q309 1697 341 1728T418 1759Z"  />
<glyph unicode="&#xC5;" d="M727 1370Q727 1371 951 686L1176 0H1004L848 494H385L227 0H57L504 1368Q424 1429 424 1524Q424 1602 480 1658T614 1714Q692 1714 748 1658T805 1524Q805 1430 727 1370ZM614 1411Q660 1411 693 1444T727 1524Q727 1570 694 1603T614 1636Q569 1636 536 1603T502 1524Q502 1478 535 1445T614 1411ZM801 637L616 1221L432 637H801Z"  />
<glyph unicode="&#xC6;" d="M1182 0H596V504H336L180 0H12L463 1411H1176V1268H760V831H1153V688H760V143H1182V0ZM596 647V1262H573L383 647H596Z"  />
<glyph unicode="&#xC7;" d="M1071 88Q923 -16 727 -25L719 -53Q838 -81 838 -178Q838 -265 774 -316T612 -367Q572 -367 530 -360V-264Q565 -268 586 -268Q641 -268 679 -246T717 -195Q717 -129 590 -129L627 -25Q380 -4 254 183T127 705Q127 1049 265 1243T686 1438Q788 1438 888 1412T1049 1343L995 1214Q854 1294 686 1294Q491 1294 396 1153T301 705Q301 117 686 117Q849 117 1020 217L1071 88Z"  />
<glyph unicode="&#xC8;" d="M993 0H256V1411H987V1268H420V831H965V688H420V143H993V0ZM778 1534H665L354 1835H579L778 1534Z"  />
<glyph unicode="&#xC9;" d="M993 0H256V1411H987V1268H420V831H965V688H420V143H993V0ZM885 1835L573 1534H461L659 1835H885Z"  />
<glyph unicode="&#xCA;" d="M993 0H256V1411H987V1268H420V831H965V688H420V143H993V0ZM940 1534H827L629 1727L430 1534H317L516 1835H741L940 1534Z"  />
<glyph unicode="&#xCB;" d="M993 0H256V1411H987V1268H420V831H965V688H420V143H993V0ZM830 1759Q875 1759 905 1728T935 1650Q935 1607 904 1575T830 1542Q785 1542 754 1574T722 1650Q722 1697 753 1728T830 1759ZM435 1759Q481 1759 511 1729T541 1650Q541 1606 510 1574T435 1542Q391 1542 359 1574T326 1650Q326 1697 358 1728T435 1759Z"  />
<glyph unicode="&#xCC;" d="M928 0H287V143H530V1268H287V1411H928V1268H694V143H928V0ZM747 1534H634L323 1835H548L747 1534Z"  />
<glyph unicode="&#xCD;" d="M928 0H287V143H530V1268H287V1411H928V1268H694V143H928V0ZM845 1835L533 1534H421L619 1835H845Z"  />
<glyph unicode="&#xCE;" d="M928 0H287V143H530V1268H287V1411H928V1268H694V143H928V0ZM919 1534H806L608 1727L409 1534H296L495 1835H720L919 1534Z"  />
<glyph unicode="&#xCF;" d="M928 0H287V143H530V1268H287V1411H928V1268H694V143H928V0ZM808 1759Q853 1759 883 1728T913 1650Q913 1607 882 1575T808 1542Q763 1542 732 1574T700 1650Q700 1697 731 1728T808 1759ZM413 1759Q459 1759 489 1729T519 1650Q519 1606 488 1574T413 1542Q369 1542 337 1574T304 1650Q304 1697 336 1728T413 1759Z"  />
<glyph unicode="&#xD0;" d="M209 1411H487Q764 1411 931 1223T1098 705Q1098 369 929 185T494 0H209V651H63V795H209V1411ZM373 143H489Q690 143 807 292T924 705Q924 967 807 1117T489 1268H373V795H567V651H373V143Z"  />
<glyph unicode="&#xD1;" d="M1040 0H858L352 1114V0H188V1411H371L879 307V1411H1040V0ZM963 1782Q929 1552 771 1552Q715 1552 597 1609Q496 1657 455 1657Q416 1657 387 1627T351 1552H267Q301 1782 459 1782Q515 1782 633 1725Q734 1677 775 1677Q814 1677 843 1707T879 1782H963Z"  />
<glyph unicode="&#xD2;" d="M612 1438Q849 1438 973 1251T1098 705Q1098 349 974 161T612 -27Q376 -27 252 160T127 705Q127 1062 251 1250T612 1438ZM612 117Q924 117 924 705Q924 1294 612 1294Q460 1294 381 1142T301 705Q301 418 380 268T612 117ZM757 1534H644L333 1835H558L757 1534Z"  />
<glyph unicode="&#xD3;" d="M612 1438Q849 1438 973 1251T1098 705Q1098 349 974 161T612 -27Q376 -27 252 160T127 705Q127 1062 251 1250T612 1438ZM612 117Q924 117 924 705Q924 1294 612 1294Q460 1294 381 1142T301 705Q301 418 380 268T612 117ZM874 1835L562 1534H450L648 1835H874Z"  />
<glyph unicode="&#xD4;" d="M612 1438Q849 1438 973 1251T1098 705Q1098 349 974 161T612 -27Q376 -27 252 160T127 705Q127 1062 251 1250T612 1438ZM612 117Q924 117 924 705Q924 1294 612 1294Q460 1294 381 1142T301 705Q301 418 380 268T612 117ZM925 1534H812L614 1727L415 1534H302L501 1835H726L925 1534Z"  />
<glyph unicode="&#xD5;" d="M612 1438Q849 1438 973 1251T1098 705Q1098 349 974 161T612 -27Q376 -27 252 160T127 705Q127 1062 251 1250T612 1438ZM612 117Q924 117 924 705Q924 1294 612 1294Q460 1294 381 1142T301 705Q301 418 380 268T612 117ZM953 1782Q919 1552 761 1552Q705 1552 587 1609Q486 1657 445 1657Q406 1657 377 1627T341 1552H257Q291 1782 449 1782Q505 1782 623 1725Q724 1677 765 1677Q804 1677 833 1707T869 1782H953Z"  />
<glyph unicode="&#xD6;" d="M612 1438Q849 1438 973 1251T1098 705Q1098 349 974 161T612 -27Q376 -27 252 160T127 705Q127 1062 251 1250T612 1438ZM612 117Q924 117 924 705Q924 1294 612 1294Q460 1294 381 1142T301 705Q301 418 380 268T612 117ZM813 1761Q858 1761 888 1730T918 1652Q918 1609 887 1577T813 1544Q768 1544 737 1576T705 1652Q705 1699 736 1730T813 1761ZM418 1761Q464 1761 494 1731T524 1652Q524 1608 493 1576T418 1544Q374 1544 342 1576T309 1652Q309 1699 341 1730T418 1761Z"  />
<glyph unicode="&#xD7;" d="M1028 406L934 313L616 631L297 313L205 406L522 725L205 1042L297 1137L616 817L932 1133L1024 1040L709 725L1028 406Z"  />
<glyph unicode="&#xD8;" d="M936 1300Q1098 1113 1098 705Q1098 349 974 161T612 -27Q488 -27 391 27L330 -117H195L291 109Q127 292 127 705Q127 1062 251 1250T612 1438Q738 1438 834 1382L899 1536H1036L936 1300ZM772 1239Q704 1294 612 1294Q460 1294 381 1142T301 705Q301 445 369 291L772 1239ZM453 172Q521 117 612 117Q924 117 924 705Q924 973 858 1118L453 172Z"  />
<glyph unicode="&#xD9;" d="M1020 444Q1020 199 921 86T618 -27Q209 -27 209 440V1411H373V455Q373 117 618 117Q741 117 798 197T856 457V1411H1020V444ZM751 1534H638L327 1835H552L751 1534Z"  />
<glyph unicode="&#xDA;" d="M1020 444Q1020 199 921 86T618 -27Q209 -27 209 440V1411H373V455Q373 117 618 117Q741 117 798 197T856 457V1411H1020V444ZM882 1835L570 1534H458L656 1835H882Z"  />
<glyph unicode="&#xDB;" d="M1020 444Q1020 199 921 86T618 -27Q209 -27 209 440V1411H373V455Q373 117 618 117Q741 117 798 197T856 457V1411H1020V444ZM929 1534H816L618 1727L419 1534H306L505 1835H730L929 1534Z"  />
<glyph unicode="&#xDC;" d="M1020 444Q1020 199 921 86T618 -27Q209 -27 209 440V1411H373V455Q373 117 618 117Q741 117 798 197T856 457V1411H1020V444ZM813 1759Q858 1759 888 1728T918 1650Q918 1607 887 1575T813 1542Q768 1542 737 1574T705 1650Q705 1697 736 1728T813 1759ZM418 1759Q464 1759 494 1729T524 1650Q524 1606 493 1574T418 1542Q374 1542 342 1574T309 1650Q309 1697 341 1728T418 1759Z"  />
<glyph unicode="&#xDD;" d="M1139 1411L698 604V0H535V604L94 1411H279L616 776L954 1411H1139ZM893 1835L581 1534H469L667 1835H893Z"  />
<glyph unicode="&#xDE;" d="M420 1120H614Q817 1120 939 1018T1061 737Q1061 557 940 450T621 342H420V0H256V1411H420V1120ZM420 485H598Q887 485 887 727Q887 839 809 908T606 977H420V485Z"  />
<glyph unicode="&#xDF;" d="M156 0V1030Q156 1223 260 1329T557 1436Q924 1436 924 1135Q924 1081 895 1029T761 903Q687 851 669 825T651 772Q651 716 698 686T903 592Q1137 497 1137 279Q1137 140 1037 57T776 -27Q624 -27 498 27L530 162Q650 104 770 104Q861 104 922 153T983 272Q983 340 944 387T791 481Q657 535 609 564T530 644T498 770Q498 819 525 866T653 985Q731 1040 750 1069T770 1126Q770 1209 716 1254T559 1300Q440 1300 376 1223T311 995V0H156Z"  />
<glyph unicode="&#xE0;" d="M1044 0H889Q870 63 870 168Q737 -27 508 -27Q392 -27 304 55T215 268Q215 345 246 404T337 503T483 567T687 600L862 614V664Q862 932 612 932Q553 932 463 907T307 846L266 958Q479 1067 662 1067Q1018 1067 1018 690V242Q1018 106 1044 0ZM862 309V498Q651 479 573 463T437 401T379 279Q379 209 428 166T553 123Q636 123 718 172T862 309ZM821 1165H708L397 1466H622L821 1165Z"  />
<glyph unicode="&#xE1;" d="M1044 0H889Q870 63 870 168Q737 -27 508 -27Q392 -27 304 55T215 268Q215 345 246 404T337 503T483 567T687 600L862 614V664Q862 932 612 932Q553 932 463 907T307 846L266 958Q479 1067 662 1067Q1018 1067 1018 690V242Q1018 106 1044 0ZM862 309V498Q651 479 573 463T437 401T379 279Q379 209 428 166T553 123Q636 123 718 172T862 309ZM918 1466L606 1165H494L692 1466H918Z"  />
<glyph unicode="&#xE2;" d="M1044 0H889Q870 63 870 168Q737 -27 508 -27Q392 -27 304 55T215 268Q215 345 246 404T337 503T483 567T687 600L862 614V664Q862 932 612 932Q553 932 463 907T307 846L266 958Q479 1067 662 1067Q1018 1067 1018 690V242Q1018 106 1044 0ZM862 309V498Q651 479 573 463T437 401T379 279Q379 209 428 166T553 123Q636 123 718 172T862 309ZM959 1165H846L648 1358L449 1165H336L535 1466H760L959 1165Z"  />
<glyph unicode="&#xE3;" d="M1044 0H889Q870 63 870 168Q737 -27 508 -27Q392 -27 304 55T215 268Q215 345 246 404T337 503T483 567T687 600L862 614V664Q862 932 612 932Q553 932 463 907T307 846L266 958Q479 1067 662 1067Q1018 1067 1018 690V242Q1018 106 1044 0ZM862 309V498Q651 479 573 463T437 401T379 279Q379 209 428 166T553 123Q636 123 718 172T862 309ZM988 1415Q954 1185 796 1185Q740 1185 622 1242Q521 1290 480 1290Q441 1290 412 1260T376 1185H292Q326 1415 484 1415Q540 1415 658 1358Q759 1310 800 1310Q839 1310 868 1340T904 1415H988Z"  />
<glyph unicode="&#xE4;" d="M1044 0H889Q870 63 870 168Q737 -27 508 -27Q392 -27 304 55T215 268Q215 345 246 404T337 503T483 567T687 600L862 614V664Q862 932 612 932Q553 932 463 907T307 846L266 958Q479 1067 662 1067Q1018 1067 1018 690V242Q1018 106 1044 0ZM862 309V498Q651 479 573 463T437 401T379 279Q379 209 428 166T553 123Q636 123 718 172T862 309ZM838 1392Q883 1392 913 1361T943 1283Q943 1240 912 1208T838 1175Q793 1175 762 1207T730 1283Q730 1330 761 1361T838 1392ZM443 1392Q489 1392 519 1362T549 1283Q549 1239 518 1207T443 1175Q399 1175 367 1207T334 1283Q334 1330 366 1361T443 1392Z"  />
<glyph unicode="&#xE5;" d="M1044 0H889Q870 63 870 168Q737 -27 508 -27Q392 -27 304 55T215 268Q215 345 246 404T337 503T483 567T687 600L862 614V664Q862 932 612 932Q553 932 463 907T307 846L266 958Q479 1067 662 1067Q1018 1067 1018 690V242Q1018 106 1044 0ZM862 309V498Q651 479 573 463T437 401T379 279Q379 209 428 166T553 123Q636 123 718 172T862 309ZM641 1548Q719 1548 775 1492T832 1358Q832 1280 776 1224T641 1167Q563 1167 507 1223T451 1358Q451 1435 507 1491T641 1548ZM641 1245Q687 1245 720 1278T754 1358Q754 1403 721 1436T641 1470Q596 1470 563 1437T529 1358Q529 1311 562 1278T641 1245Z"  />
<glyph unicode="&#xE6;" d="M1186 35Q1057 -27 928 -27Q718 -27 618 150Q486 -27 309 -27Q194 -27 120 53T45 268Q45 412 153 499T541 612V664Q541 805 496 868T338 932Q260 932 127 874L86 993Q237 1067 387 1067Q572 1067 643 948Q734 1067 877 1067Q1019 1067 1101 942T1184 575V516H696V498Q696 310 755 210T928 109Q1036 109 1163 160L1186 35ZM1010 643Q1010 780 975 857T877 934Q796 934 749 857T696 643H1010ZM541 256V498Q378 488 294 429T209 279Q209 210 251 167T356 123Q429 123 485 176T541 256Z"  />
<glyph unicode="&#xE7;" d="M1014 35Q885 -23 727 -27L719 -53Q838 -81 838 -178Q838 -265 774 -316T612 -367Q572 -367 530 -360V-264Q565 -268 586 -268Q641 -268 679 -246T717 -195Q717 -129 590 -129L627 -20Q413 8 295 154T176 520Q176 768 323 917T711 1067Q868 1067 1010 1012L969 883Q827 932 713 932Q541 932 441 821T340 520Q340 346 444 228T715 109Q847 109 987 160L1014 35Z"  />
<glyph unicode="&#xE8;" d="M1049 516H334Q334 339 436 224T688 109Q830 109 981 160L1008 35Q870 -27 686 -27Q454 -27 312 122T170 524Q170 772 297 919T627 1067Q807 1067 928 930T1049 565V516ZM879 643Q879 765 803 848T633 932Q512 932 433 852T344 643H879ZM772 1165H659L348 1466H573L772 1165Z"  />
<glyph unicode="&#xE9;" d="M1049 516H334Q334 339 436 224T688 109Q830 109 981 160L1008 35Q870 -27 686 -27Q454 -27 312 122T170 524Q170 772 297 919T627 1067Q807 1067 928 930T1049 565V516ZM879 643Q879 765 803 848T633 932Q512 932 433 852T344 643H879ZM876 1466L564 1165H452L650 1466H876Z"  />
<glyph unicode="&#xEA;" d="M1049 516H334Q334 339 436 224T688 109Q830 109 981 160L1008 35Q870 -27 686 -27Q454 -27 312 122T170 524Q170 772 297 919T627 1067Q807 1067 928 930T1049 565V516ZM879 643Q879 765 803 848T633 932Q512 932 433 852T344 643H879ZM927 1165H814L616 1358L417 1165H304L503 1466H728L927 1165Z"  />
<glyph unicode="&#xEB;" d="M1049 516H334Q334 339 436 224T688 109Q830 109 981 160L1008 35Q870 -27 686 -27Q454 -27 312 122T170 524Q170 772 297 919T627 1067Q807 1067 928 930T1049 565V516ZM879 643Q879 765 803 848T633 932Q512 932 433 852T344 643H879ZM826 1392Q871 1392 901 1361T931 1283Q931 1240 900 1208T826 1175Q781 1175 750 1207T718 1283Q718 1330 749 1361T826 1392ZM431 1392Q477 1392 507 1362T537 1283Q537 1239 506 1207T431 1175Q387 1175 355 1207T322 1283Q322 1330 354 1361T431 1392Z"  />
<glyph unicode="&#xEC;" d="M758 0H602V907H295V1042H758V0ZM761 1165H648L337 1466H562L761 1165Z"  />
<glyph unicode="&#xED;" d="M758 0H602V907H295V1042H758V0ZM867 1466L555 1165H443L641 1466H867Z"  />
<glyph unicode="&#xEE;" d="M758 0H602V907H295V1042H758V0ZM905 1165H792L594 1358L395 1165H282L481 1466H706L905 1165Z"  />
<glyph unicode="&#xEF;" d="M758 0H602V907H295V1042H758V0ZM806 1392Q851 1392 881 1361T911 1283Q911 1240 880 1208T806 1175Q761 1175 730 1207T698 1283Q698 1330 729 1361T806 1392ZM411 1392Q457 1392 487 1362T517 1283Q517 1239 486 1207T411 1175Q367 1175 335 1207T302 1283Q302 1330 334 1361T411 1392Z"  />
<glyph unicode="&#xF0;" d="M678 1305Q882 1115 983 925T1083 510Q1083 275 956 124T614 -27Q398 -27 272 123T145 522Q145 768 272 917T614 1067Q666 1067 721 1057Q640 1173 575 1235L459 1151L383 1223L502 1305Q442 1364 369 1419L444 1501Q524 1444 604 1374L727 1464L799 1395L678 1305ZM614 109Q756 109 838 229T920 520Q920 700 839 816T614 932Q469 932 389 818T309 520Q309 346 390 228T614 109Z"  />
<glyph unicode="&#xF1;" d="M1018 0H862V668Q862 807 818 869T678 932Q535 932 371 754V0H215V1042H371V889Q539 1067 725 1067Q1018 1067 1018 713V0ZM961 1415Q927 1185 769 1185Q713 1185 595 1242Q494 1290 453 1290Q414 1290 385 1260T349 1185H265Q299 1415 457 1415Q513 1415 631 1358Q732 1310 773 1310Q812 1310 841 1340T877 1415H961Z"  />
<glyph unicode="&#xF2;" d="M614 1067Q829 1067 956 917T1083 522Q1083 275 956 124T614 -27Q398 -27 272 123T145 522Q145 768 272 917T614 1067ZM614 109Q756 109 838 229T920 520Q920 700 839 816T614 932Q469 932 389 818T309 520Q309 346 390 228T614 109ZM795 1165H682L371 1466H596L795 1165Z"  />
<glyph unicode="&#xF3;" d="M614 1067Q829 1067 956 917T1083 522Q1083 275 956 124T614 -27Q398 -27 272 123T145 522Q145 768 272 917T614 1067ZM614 109Q756 109 838 229T920 520Q920 700 839 816T614 932Q469 932 389 818T309 520Q309 346 390 228T614 109ZM893 1466L581 1165H469L667 1466H893Z"  />
<glyph unicode="&#xF4;" d="M614 1067Q829 1067 956 917T1083 522Q1083 275 956 124T614 -27Q398 -27 272 123T145 522Q145 768 272 917T614 1067ZM614 109Q756 109 838 229T920 520Q920 700 839 816T614 932Q469 932 389 818T309 520Q309 346 390 228T614 109ZM929 1165H816L618 1358L419 1165H306L505 1466H730L929 1165Z"  />
<glyph unicode="&#xF5;" d="M614 1067Q829 1067 956 917T1083 522Q1083 275 956 124T614 -27Q398 -27 272 123T145 522Q145 768 272 917T614 1067ZM614 109Q756 109 838 229T920 520Q920 700 839 816T614 932Q469 932 389 818T309 520Q309 346 390 228T614 109ZM965 1415Q931 1185 773 1185Q717 1185 599 1242Q498 1290 457 1290Q418 1290 389 1260T353 1185H269Q303 1415 461 1415Q517 1415 635 1358Q736 1310 777 1310Q816 1310 845 1340T881 1415H965Z"  />
<glyph unicode="&#xF6;" d="M614 1067Q829 1067 956 917T1083 522Q1083 275 956 124T614 -27Q398 -27 272 123T145 522Q145 768 272 917T614 1067ZM614 109Q756 109 838 229T920 520Q920 700 839 816T614 932Q469 932 389 818T309 520Q309 346 390 228T614 109ZM813 1392Q858 1392 888 1361T918 1283Q918 1240 887 1208T813 1175Q768 1175 737 1207T705 1283Q705 1330 736 1361T813 1392ZM418 1392Q464 1392 494 1362T524 1283Q524 1239 493 1207T418 1175Q374 1175 342 1207T309 1283Q309 1330 341 1361T418 1392Z"  />
<glyph unicode="&#xF7;" d="M616 1223Q664 1223 696 1191T729 1110Q729 1062 696 1028T616 993Q570 993 538 1027T506 1110Q506 1159 537 1191T616 1223ZM1087 657H141V788H1087V657ZM616 453Q664 453 696 421T729 340Q729 292 696 258T616 223Q570 223 538 257T506 340Q506 389 537 421T616 453Z"  />
<glyph unicode="&#xF8;" d="M891 979Q1083 830 1083 522Q1083 275 956 124T614 -27Q542 -27 467 -6L406 -150H270L354 47Q145 194 145 522Q145 768 272 917T614 1067Q700 1067 780 1040L844 1188H981L891 979ZM725 911Q670 932 614 932Q469 932 389 818T309 520Q309 312 418 193L725 911ZM522 123Q569 109 614 109Q756 109 838 229T920 520Q920 713 827 831L522 123Z"  />
<glyph unicode="&#xF9;" d="M1016 0H860V154Q692 -25 506 -25Q213 -25 213 330V1042H369V375Q369 242 411 177T553 111Q696 111 860 289V1042H1016V0ZM769 1165H656L345 1466H570L769 1165Z"  />
<glyph unicode="&#xFA;" d="M1016 0H860V154Q692 -25 506 -25Q213 -25 213 330V1042H369V375Q369 242 411 177T553 111Q696 111 860 289V1042H1016V0ZM889 1466L577 1165H465L663 1466H889Z"  />
<glyph unicode="&#xFB;" d="M1016 0H860V154Q692 -25 506 -25Q213 -25 213 330V1042H369V375Q369 242 411 177T553 111Q696 111 860 289V1042H1016V0ZM921 1165H808L610 1358L411 1165H298L497 1466H722L921 1165Z"  />
<glyph unicode="&#xFC;" d="M1016 0H860V154Q692 -25 506 -25Q213 -25 213 330V1042H369V375Q369 242 411 177T553 111Q696 111 860 289V1042H1016V0ZM806 1392Q851 1392 881 1361T911 1283Q911 1240 880 1208T806 1175Q761 1175 730 1207T698 1283Q698 1330 729 1361T806 1392ZM411 1392Q457 1392 487 1362T517 1283Q517 1239 486 1207T411 1175Q367 1175 335 1207T302 1283Q302 1330 334 1361T411 1392Z"  />
<glyph unicode="&#xFD;" d="M1065 1042L670 0Q584 -230 500 -321T307 -412Q211 -412 117 -377L143 -252Q219 -276 279 -276Q363 -276 417 -211T526 2L135 1042H305L600 211L895 1042H1065ZM879 1466L567 1165H455L653 1466H879Z"  />
<glyph unicode="&#xFE;" d="M371 907Q423 979 511 1023T698 1067Q878 1067 980 919T1083 532Q1083 292 976 133T686 -27Q589 -27 505 21T371 150V-412H215V1411H371V907ZM371 752V319Q415 231 490 172T645 113Q771 113 845 231T920 524Q920 704 849 818T651 932Q486 932 371 752Z"  />
<glyph unicode="&#xFF;" d="M1065 1042L670 0Q584 -230 500 -321T307 -412Q211 -412 117 -377L143 -252Q219 -276 279 -276Q363 -276 417 -211T526 2L135 1042H305L600 211L895 1042H1065ZM804 1392Q849 1392 879 1361T909 1283Q909 1240 878 1208T804 1175Q759 1175 728 1207T696 1283Q696 1330 727 1361T804 1392ZM409 1392Q455 1392 485 1362T515 1283Q515 1239 484 1207T409 1175Q365 1175 333 1207T300 1283Q300 1330 332 1361T409 1392Z"  />
<glyph unicode="&#x100;" d="M1176 0H1004L848 494H385L227 0H57L518 1411H715L1176 0ZM801 637L616 1221L432 637H801ZM954 1554H276V1683H954V1554Z"  />
<glyph unicode="&#x101;" d="M1044 0H889Q870 63 870 168Q737 -27 508 -27Q392 -27 304 55T215 268Q215 345 246 404T337 503T483 567T687 600L862 614V664Q862 932 612 932Q553 932 463 907T307 846L266 958Q479 1067 662 1067Q1018 1067 1018 690V242Q1018 106 1044 0ZM862 309V498Q651 479 573 463T437 401T379 279Q379 209 428 166T553 123Q636 123 718 172T862 309ZM990 1223H312V1352H990V1223Z"  />
<glyph unicode="&#x102;" d="M1176 0H1004L848 494H385L227 0H57L518 1411H715L1176 0ZM801 637L616 1221L432 637H801ZM899 1807Q875 1678 801 1610T612 1542Q370 1542 319 1807H457Q486 1680 614 1680Q732 1680 760 1807H899Z"  />
<glyph unicode="&#x103;" d="M1044 0H889Q870 63 870 168Q737 -27 508 -27Q392 -27 304 55T215 268Q215 345 246 404T337 503T483 567T687 600L862 614V664Q862 932 612 932Q553 932 463 907T307 846L266 958Q479 1067 662 1067Q1018 1067 1018 690V242Q1018 106 1044 0ZM862 309V498Q651 479 573 463T437 401T379 279Q379 209 428 166T553 123Q636 123 718 172T862 309ZM932 1430Q908 1301 834 1233T645 1165Q403 1165 352 1430H490Q519 1303 647 1303Q765 1303 793 1430H932Z"  />
<glyph unicode="&#x104;" d="M1176 0H1106Q1034 -89 1034 -141Q1034 -268 1137 -268Q1180 -268 1229 -246V-334Q1187 -367 1100 -367Q1009 -367 961 -316T913 -182Q913 -92 1004 0L848 494H385L227 0H57L518 1411H715L1176 0ZM801 637L616 1221L432 637H801Z"  />
<glyph unicode="&#x105;" d="M1044 0H991Q920 -89 920 -141Q920 -268 1042 -268Q1075 -268 1155 -246V-334Q1083 -367 1006 -367Q914 -367 857 -316T799 -182Q799 -92 889 0Q870 63 870 168Q737 -27 508 -27Q392 -27 304 55T215 268Q215 345 246 404T337 503T483 567T687 600L862 614V664Q862 932 612 932Q553 932 463 907T307 846L266 958Q479 1067 662 1067Q1018 1067 1018 690V242Q1018 106 1044 0ZM862 309V498Q651 479 573 463T437 401T379 279Q379 209 428 166T553 123Q636 123 718 172T862 309Z"  />
<glyph unicode="&#x106;" d="M1071 88Q905 -27 686 -27Q412 -27 270 161T127 705Q127 1049 265 1243T686 1438Q788 1438 888 1412T1049 1343L995 1214Q854 1294 686 1294Q491 1294 396 1153T301 705Q301 117 686 117Q849 117 1020 217L1071 88ZM934 1853L622 1552H510L708 1853H934Z"  />
<glyph unicode="&#x107;" d="M1014 35Q878 -27 715 -27Q469 -27 323 122T176 520Q176 768 323 917T711 1067Q868 1067 1010 1012L969 883Q827 932 713 932Q541 932 441 821T340 520Q340 346 444 228T715 109Q847 109 987 160L1014 35ZM940 1466L628 1165H516L714 1466H940Z"  />
<glyph unicode="&#x108;" d="M1071 88Q905 -27 686 -27Q412 -27 270 161T127 705Q127 1049 265 1243T686 1438Q788 1438 888 1412T1049 1343L995 1214Q854 1294 686 1294Q491 1294 396 1153T301 705Q301 117 686 117Q849 117 1020 217L1071 88ZM968 1553H855L657 1746L458 1553H345L544 1854H769L968 1553Z"  />
<glyph unicode="&#x109;" d="M1014 35Q878 -27 715 -27Q469 -27 323 122T176 520Q176 768 323 917T711 1067Q868 1067 1010 1012L969 883Q827 932 713 932Q541 932 441 821T340 520Q340 346 444 228T715 109Q847 109 987 160L1014 35ZM972 1165H859L661 1358L462 1165H349L548 1466H773L972 1165Z"  />
<glyph unicode="&#x10A;" d="M1071 88Q905 -27 686 -27Q412 -27 270 161T127 705Q127 1049 265 1243T686 1438Q788 1438 888 1412T1049 1343L995 1214Q854 1294 686 1294Q491 1294 396 1153T301 705Q301 117 686 117Q849 117 1020 217L1071 88ZM662 1742Q702 1742 729 1715T757 1647Q757 1607 730 1579T662 1551Q623 1551 595 1579T566 1647Q566 1687 594 1714T662 1742Z"  />
<glyph unicode="&#x10B;" d="M1014 35Q878 -27 715 -27Q469 -27 323 122T176 520Q176 768 323 917T711 1067Q868 1067 1010 1012L969 883Q827 932 713 932Q541 932 441 821T340 520Q340 346 444 228T715 109Q847 109 987 160L1014 35ZM686 1438Q726 1438 753 1411T781 1343Q781 1303 754 1275T686 1247Q647 1247 619 1275T590 1343Q590 1383 618 1410T686 1438Z"  />
<glyph unicode="&#x10C;" d="M1071 88Q905 -27 686 -27Q412 -27 270 161T127 705Q127 1049 265 1243T686 1438Q788 1438 888 1412T1049 1343L995 1214Q854 1294 686 1294Q491 1294 396 1153T301 705Q301 117 686 117Q849 117 1020 217L1071 88ZM992 1853L793 1552H568L369 1853H482L680 1661L879 1853H992Z"  />
<glyph unicode="&#x10D;" d="M1014 35Q878 -27 715 -27Q469 -27 323 122T176 520Q176 768 323 917T711 1067Q868 1067 1010 1012L969 883Q827 932 713 932Q541 932 441 821T340 520Q340 346 444 228T715 109Q847 109 987 160L1014 35ZM971 1466L772 1165H547L348 1466H461L659 1274L858 1466H971Z"  />
<glyph unicode="&#x10E;" d="M209 1411H487Q764 1411 931 1223T1098 705Q1098 369 929 185T494 0H209V1411ZM373 143H489Q690 143 807 292T924 705Q924 967 807 1117T489 1268H373V143ZM888 1853L689 1552H464L265 1853H378L576 1661L775 1853H888Z"  />
<glyph unicode="&#x10F;" d="M915 0H759V150Q711 73 622 23T433 -27Q254 -27 150 132T46 537Q46 766 154 916T442 1067Q639 1067 759 907V1411H915V0ZM759 319V752Q647 932 489 932Q360 932 285 818T210 528Q210 348 280 231T474 113Q533 113 593 145T706 241T759 319ZM1097 1291Q1057 1296 1031 1324T1005 1390Q1005 1428 1030 1455T1093 1483Q1137 1483 1168 1448T1200 1361Q1200 1213 1033 1127L1003 1184Q1097 1229 1097 1291Z"  />
<glyph unicode="&#x110;" d="M209 1411H487Q764 1411 931 1223T1098 705Q1098 369 929 185T494 0H209V651H63V795H209V1411ZM373 143H489Q690 143 807 292T924 705Q924 967 807 1117T489 1268H373V795H567V651H373V143Z"  />
<glyph unicode="&#x111;" d="M1178 1155H1014V0H858V150Q810 73 721 23T532 -27Q353 -27 249 132T145 537Q145 766 253 916T541 1067Q738 1067 858 907V1155H637V1278H858V1411H1014V1278H1178V1155ZM858 319V752Q746 932 588 932Q459 932 384 818T309 528Q309 348 379 231T573 113Q632 113 692 145T805 241T858 319Z"  />
<glyph unicode="&#x112;" d="M993 0H256V1411H987V1268H420V831H965V688H420V143H993V0ZM966 1554H288V1683H966V1554Z"  />
<glyph unicode="&#x113;" d="M1049 516H334Q334 339 436 224T688 109Q830 109 981 160L1008 35Q870 -27 686 -27Q454 -27 312 122T170 524Q170 772 297 919T627 1067Q807 1067 928 930T1049 565V516ZM879 643Q879 765 803 848T633 932Q512 932 433 852T344 643H879ZM962 1223H284V1352H962V1223Z"  />
<glyph unicode="&#x114;" d="M993 0H256V1411H987V1268H420V831H965V688H420V143H993V0ZM931 1818Q907 1689 833 1621T644 1553Q402 1553 351 1818H489Q518 1691 646 1691Q764 1691 792 1818H931Z"  />
<glyph unicode="&#x115;" d="M1049 516H334Q334 339 436 224T688 109Q830 109 981 160L1008 35Q870 -27 686 -27Q454 -27 312 122T170 524Q170 772 297 919T627 1067Q807 1067 928 930T1049 565V516ZM879 643Q879 765 803 848T633 932Q512 932 433 852T344 643H879ZM915 1430Q891 1301 817 1233T628 1165Q386 1165 335 1430H473Q502 1303 630 1303Q748 1303 776 1430H915Z"  />
<glyph unicode="&#x116;" d="M993 0H256V1411H987V1268H420V831H965V688H420V143H993V0ZM634 1746Q674 1746 701 1719T729 1651Q729 1611 702 1583T634 1555Q595 1555 567 1583T538 1651Q538 1691 566 1718T634 1746Z"  />
<glyph unicode="&#x117;" d="M1049 516H334Q334 339 436 224T688 109Q830 109 981 160L1008 35Q870 -27 686 -27Q454 -27 312 122T170 524Q170 772 297 919T627 1067Q807 1067 928 930T1049 565V516ZM879 643Q879 765 803 848T633 932Q512 932 433 852T344 643H879ZM614 1438Q654 1438 681 1411T709 1343Q709 1303 682 1275T614 1247Q575 1247 547 1275T518 1343Q518 1383 546 1410T614 1438Z"  />
<glyph unicode="&#x118;" d="M993 0H711Q639 -89 639 -141Q639 -268 762 -268Q795 -268 874 -246V-334Q802 -367 725 -367Q634 -367 576 -316T518 -182Q518 -92 608 0H256V1411H987V1268H420V831H965V688H420V143H993V0Z"  />
<glyph unicode="&#x119;" d="M1049 516H334Q334 339 436 224T688 109Q830 109 981 160L1008 35Q893 -18 715 -27Q664 -98 664 -141Q664 -268 786 -268Q819 -268 899 -246V-334Q827 -367 750 -367Q658 -367 601 -316T543 -182Q543 -100 612 -23Q404 4 287 150T170 524Q170 772 297 919T627 1067Q807 1067 928 930T1049 565V516ZM879 643Q879 765 803 848T633 932Q512 932 433 852T344 643H879Z"  />
<glyph unicode="&#x11A;" d="M993 0H256V1411H987V1268H420V831H965V688H420V143H993V0ZM947 1860L748 1559H523L324 1860H437L635 1668L834 1860H947Z"  />
<glyph unicode="&#x11B;" d="M1049 516H334Q334 339 436 224T688 109Q830 109 981 160L1008 35Q870 -27 686 -27Q454 -27 312 122T170 524Q170 772 297 919T627 1067Q807 1067 928 930T1049 565V516ZM879 643Q879 765 803 848T633 932Q512 932 433 852T344 643H879ZM942 1466L743 1165H518L319 1466H432L630 1274L829 1466H942Z"  />
<glyph unicode="&#x11C;" d="M1069 100Q896 -27 686 -27Q411 -27 269 159T127 705Q127 1052 264 1245T686 1438Q788 1438 888 1412T1049 1343L995 1214Q854 1294 686 1294Q492 1294 397 1152T301 705Q301 117 686 117Q831 117 905 178V526H651V668H1069V100ZM984 1549H871L673 1742L474 1549H361L560 1850H785L984 1549Z"  />
<glyph unicode="&#x11D;" d="M504 393Q358 322 358 268Q358 239 391 219T483 199L834 209Q959 209 1028 148T1098 -25Q1098 -202 940 -307T571 -412Q398 -412 288 -340T178 -152Q178 -27 348 59Q207 125 207 221Q207 331 389 426Q305 477 260 558T215 729Q215 876 315 970T565 1065Q673 1065 760 1020L1069 1067V915H870Q915 836 915 729Q915 587 816 489T565 391Q533 391 504 393ZM565 512Q651 512 705 571T760 727Q760 828 707 885T565 942Q482 942 426 883T369 727Q369 633 425 573T565 512ZM571 -291Q725 -291 833 -223T942 -53Q942 51 788 51Q737 51 612 45Q533 41 488 41Q466 41 420 5T349 -67T324 -143Q324 -204 392 -247T571 -291ZM909 1165H796L598 1358L399 1165H286L485 1466H710L909 1165Z"  />
<glyph unicode="&#x11E;" d="M1069 100Q896 -27 686 -27Q411 -27 269 159T127 705Q127 1052 264 1245T686 1438Q788 1438 888 1412T1049 1343L995 1214Q854 1294 686 1294Q492 1294 397 1152T301 705Q301 117 686 117Q831 117 905 178V526H651V668H1069V100ZM947 1817Q923 1688 849 1620T660 1552Q418 1552 367 1817H505Q534 1690 662 1690Q780 1690 808 1817H947Z"  />
<glyph unicode="&#x11F;" d="M504 393Q358 322 358 268Q358 239 391 219T483 199L834 209Q959 209 1028 148T1098 -25Q1098 -202 940 -307T571 -412Q398 -412 288 -340T178 -152Q178 -27 348 59Q207 125 207 221Q207 331 389 426Q305 477 260 558T215 729Q215 876 315 970T565 1065Q673 1065 760 1020L1069 1067V915H870Q915 836 915 729Q915 587 816 489T565 391Q533 391 504 393ZM565 512Q651 512 705 571T760 727Q760 828 707 885T565 942Q482 942 426 883T369 727Q369 633 425 573T565 512ZM571 -291Q725 -291 833 -223T942 -53Q942 51 788 51Q737 51 612 45Q533 41 488 41Q466 41 420 5T349 -67T324 -143Q324 -204 392 -247T571 -291ZM876 1430Q852 1301 778 1233T589 1165Q347 1165 296 1430H434Q463 1303 591 1303Q709 1303 737 1430H876Z"  />
<glyph unicode="&#x120;" d="M1069 100Q896 -27 686 -27Q411 -27 269 159T127 705Q127 1052 264 1245T686 1438Q788 1438 888 1412T1049 1343L995 1214Q854 1294 686 1294Q492 1294 397 1152T301 705Q301 117 686 117Q831 117 905 178V526H651V668H1069V100ZM658 1746Q698 1746 725 1719T753 1651Q753 1611 726 1583T658 1555Q619 1555 591 1583T562 1651Q562 1691 590 1718T658 1746Z"  />
<glyph unicode="&#x121;" d="M504 393Q358 322 358 268Q358 239 391 219T483 199L834 209Q959 209 1028 148T1098 -25Q1098 -202 940 -307T571 -412Q398 -412 288 -340T178 -152Q178 -27 348 59Q207 125 207 221Q207 331 389 426Q305 477 260 558T215 729Q215 876 315 970T565 1065Q673 1065 760 1020L1069 1067V915H870Q915 836 915 729Q915 587 816 489T565 391Q533 391 504 393ZM565 512Q651 512 705 571T760 727Q760 828 707 885T565 942Q482 942 426 883T369 727Q369 633 425 573T565 512ZM571 -291Q725 -291 833 -223T942 -53Q942 51 788 51Q737 51 612 45Q533 41 488 41Q466 41 420 5T349 -67T324 -143Q324 -204 392 -247T571 -291ZM571 1438Q611 1438 638 1411T666 1343Q666 1303 639 1275T571 1247Q532 1247 504 1275T475 1343Q475 1383 503 1410T571 1438Z"  />
<glyph unicode="&#x122;" d="M1069 100Q896 -27 686 -27Q411 -27 269 159T127 705Q127 1052 264 1245T686 1438Q788 1438 888 1412T1049 1343L995 1214Q854 1294 686 1294Q492 1294 397 1152T301 705Q301 117 686 117Q831 117 905 178V526H651V668H1069V100ZM647 -282Q607 -277 581 -249T555 -183Q555 -145 580 -118T643 -90Q687 -90 718 -125T750 -212Q750 -360 583 -446L553 -389Q647 -344 647 -282Z"  />
<glyph unicode="&#x123;" d="M504 393Q358 322 358 268Q358 239 391 218T483 197L834 207Q959 207 1028 147T1098 -25Q1098 -202 940 -307T571 -412Q398 -412 288 -340T178 -152Q178 -27 348 59Q207 125 207 221Q207 331 389 426Q305 477 260 558T215 729Q215 876 315 970T565 1065Q673 1065 760 1020L1069 1067V915H870Q915 836 915 729Q915 587 816 489T565 391Q533 391 504 393ZM565 512Q651 512 705 571T760 727Q760 828 707 885T565 942Q482 942 426 883T369 727Q369 633 425 573T565 512ZM571 -291Q725 -291 833 -223T942 -53Q942 51 788 51Q737 51 612 45Q533 41 488 41Q466 41 420 5T349 -67T324 -143Q324 -204 392 -247T571 -291ZM682 1524Q578 1474 578 1405Q622 1399 651 1367T680 1294Q680 1252 652 1222T582 1192Q533 1192 498 1231T463 1327Q463 1491 649 1587L682 1524Z"  />
<glyph unicode="&#x124;" d="M1020 0H856V700H373V0H209V1411H373V844H856V1411H1020V0ZM929 1553H816L618 1746L419 1553H306L505 1854H730L929 1553Z"  />
<glyph unicode="&#x125;" d="M1018 0H862V668Q862 807 818 869T678 932Q535 932 371 754V0H215V1411H371V889Q539 1067 725 1067Q1018 1067 1018 713V0ZM936 1553H823L625 1746L426 1553H313L512 1854H737L936 1553Z"  />
<glyph unicode="&#x126;" d="M1161 1044H1020V0H856V700H373V0H209V1044H63V1188H209V1411H373V1188H856V1411H1020V1188H1161V1044ZM856 844V1044H373V844H856Z"  />
<glyph unicode="&#x127;" d="M1018 0H862V668Q862 807 818 869T678 932Q535 932 371 754V0H215V1155H51V1278H215V1411H371V1278H592V1155H371V889Q539 1067 725 1067Q1018 1067 1018 713V0Z"  />
<glyph unicode="&#x128;" d="M928 0H287V143H530V1268H287V1411H928V1268H694V143H928V0ZM950 1782Q916 1552 758 1552Q702 1552 584 1609Q483 1657 442 1657Q403 1657 374 1627T338 1552H254Q288 1782 446 1782Q502 1782 620 1725Q721 1677 762 1677Q801 1677 830 1707T866 1782H950Z"  />
<glyph unicode="&#x129;" d="M758 0H602V907H295V1042H758V0ZM906 1430Q872 1200 714 1200Q658 1200 540 1257Q439 1305 398 1305Q359 1305 330 1275T294 1200H210Q244 1430 402 1430Q458 1430 576 1373Q677 1325 718 1325Q757 1325 786 1355T822 1430H906Z"  />
<glyph unicode="&#x12A;" d="M928 0H287V143H530V1268H287V1411H928V1268H694V143H928V0ZM947 1554H269V1683H947V1554Z"  />
<glyph unicode="&#x12B;" d="M758 0H602V907H295V1042H758V0ZM947 1223H269V1352H947V1223Z"  />
<glyph unicode="&#x12E;" d="M809 -334Q736 -367 659 -367Q568 -367 511 -316T453 -182Q453 -92 543 0H287V143H530V1268H287V1411H928V1268H694V143H928V0H645Q573 -89 573 -141Q573 -268 696 -268Q729 -268 809 -246V-334Z"  />
<glyph unicode="&#x12F;" d="M868 -334Q796 -367 719 -367Q627 -367 570 -316T512 -182Q512 -92 602 0V907H295V1042H758V0H705Q633 -89 633 -141Q633 -268 756 -268Q789 -268 868 -246V-334ZM682 1436Q726 1436 757 1405T788 1329Q788 1283 758 1252T682 1221Q641 1221 610 1253T578 1329Q578 1372 609 1404T682 1436Z"  />
<glyph unicode="&#x130;" d="M928 0H287V143H530V1268H287V1411H928V1268H694V143H928V0ZM614 1743Q654 1743 681 1716T709 1648Q709 1608 682 1580T614 1552Q575 1552 547 1580T518 1648Q518 1688 546 1715T614 1743Z"  />
<glyph unicode="&#x131;" d="M758 0H602V907H295V1042H758V0Z"  />
<glyph unicode="&#x132;" d="M518 0H82V143H223V1268H82V1411H518V1268H387V143H518V0ZM1096 375Q1096 -27 778 -27Q684 -27 580 25L629 156Q717 117 778 117Q862 117 897 181T932 387V1411H1096V375Z"  />
<glyph unicode="&#x133;" d="M360 1436Q405 1436 436 1405T467 1329Q467 1283 436 1252T360 1221Q319 1221 288 1253T256 1329Q256 1372 287 1404T360 1436ZM922 1436Q966 1436 997 1405T1028 1329Q1028 1283 997 1252T922 1221Q880 1221 849 1253T817 1329Q817 1372 848 1404T922 1436ZM436 0H281V907H55V1042H436V0ZM997 -53Q997 -249 930 -330T694 -412Q605 -412 496 -373L537 -248Q636 -276 694 -276Q779 -276 810 -229T842 -37V907H616V1042H997V-53Z"  />
<glyph unicode="&#x134;" d="M866 375Q866 181 765 77T467 -27Q296 -27 156 45L205 176Q324 117 467 117Q591 117 646 182T702 387V1411H866V375ZM909 1553H796L598 1746L399 1553H286L485 1854H710L909 1553Z"  />
<glyph unicode="&#x135;" d="M891 1165H778L580 1358L381 1165H268L467 1466H692L891 1165ZM758 -53Q758 -249 691 -330T455 -412Q347 -412 215 -371L256 -244Q367 -276 455 -276Q539 -276 570 -229T602 -37V907H295V1042H758V-53Z"  />
<glyph unicode="&#x136;" d="M1206 0H999L522 692L373 530V0H209V1411H373V735L999 1411H1188L637 815L1206 0ZM671 -282Q631 -277 605 -249T579 -183Q579 -145 604 -118T667 -90Q711 -90 742 -125T774 -212Q774 -360 607 -446L577 -389Q671 -344 671 -282Z"  />
<glyph unicode="&#x137;" d="M1120 0H915L473 518L371 430V0H215V1411H371V602L860 1042H1059L584 616L1120 0ZM632 -282Q592 -277 566 -249T540 -183Q540 -145 565 -118T628 -90Q672 -90 703 -125T735 -212Q735 -360 568 -446L538 -389Q632 -344 632 -282Z"  />
<glyph unicode="&#x139;" d="M1024 0H256V1411H420V143H1024V0ZM847 1851L535 1550H423L621 1851H847Z"  />
<glyph unicode="&#x13A;" d="M942 0H516V1276H244V1411H672V135H942V0ZM883 1853L571 1552H459L657 1853H883Z"  />
<glyph unicode="&#x13B;" d="M1024 0H256V1411H420V143H1024V0ZM640 -282Q600 -277 574 -249T548 -183Q548 -145 573 -118T636 -90Q680 -90 711 -125T743 -212Q743 -360 576 -446L546 -389Q640 -344 640 -282Z"  />
<glyph unicode="&#x13C;" d="M942 0H516V1276H244V1411H672V135H942V0ZM600 -282Q560 -277 534 -249T508 -183Q508 -145 533 -118T596 -90Q640 -90 671 -125T703 -212Q703 -360 536 -446L506 -389Q600 -344 600 -282Z"  />
<glyph unicode="&#x13D;" d="M1024 0H256V1411H420V143H1024V0ZM897 1291Q857 1296 831 1324T805 1390Q805 1428 830 1455T893 1483Q937 1483 968 1448T1000 1361Q1000 1213 833 1127L803 1184Q897 1229 897 1291Z"  />
<glyph unicode="&#x13E;" d="M942 0H516V1276H244V1411H672V135H942V0ZM997 1291Q957 1296 931 1324T905 1390Q905 1428 930 1455T993 1483Q1037 1483 1068 1448T1100 1361Q1100 1213 933 1127L903 1184Q997 1229 997 1291Z"  />
<glyph unicode="&#x13F;" d="M1024 0H256V1411H420V143H1024V0ZM722 771Q762 771 789 744T817 676Q817 636 790 608T722 580Q683 580 655 608T626 676Q626 716 654 743T722 771Z"  />
<glyph unicode="&#x140;" d="M942 0H516V1276H244V1411H672V135H942V0ZM946 775Q986 775 1013 748T1041 680Q1041 640 1014 612T946 584Q907 584 879 612T850 680Q850 720 878 747T946 775Z"  />
<glyph unicode="&#x141;" d="M1024 0H256V532L154 467L82 575L256 688V1411H420V795L698 975L770 866L420 639V143H1024V0Z"  />
<glyph unicode="&#x142;" d="M948 831L672 651V135H942V0H516V551L332 432L260 541L516 707V1276H244V1411H672V807L877 940L948 831Z"  />
<glyph unicode="&#x143;" d="M1040 0H858L352 1114V0H188V1411H371L879 307V1411H1040V0ZM883 1853L571 1552H459L657 1853H883Z"  />
<glyph unicode="&#x144;" d="M1018 0H862V668Q862 807 818 869T678 932Q535 932 371 754V0H215V1042H371V889Q539 1067 725 1067Q1018 1067 1018 713V0ZM883 1466L571 1165H459L657 1466H883Z"  />
<glyph unicode="&#x145;" d="M1040 0H858L352 1114V0H188V1411H371L879 307V1411H1040V0ZM632 -282Q592 -277 566 -249T540 -183Q540 -145 565 -118T628 -90Q672 -90 703 -125T735 -212Q735 -360 568 -446L538 -389Q632 -344 632 -282Z"  />
<glyph unicode="&#x146;" d="M1018 0H862V668Q862 807 818 869T678 932Q535 932 371 754V0H215V1042H371V889Q539 1067 725 1067Q1018 1067 1018 713V0ZM620 -282Q580 -277 554 -249T528 -183Q528 -145 553 -118T616 -90Q660 -90 691 -125T723 -212Q723 -360 556 -446L526 -389Q620 -344 620 -282Z"  />
<glyph unicode="&#x147;" d="M1040 0H858L352 1114V0H188V1411H371L879 307V1411H1040V0ZM923 1853L724 1552H499L300 1853H413L611 1661L810 1853H923Z"  />
<glyph unicode="&#x148;" d="M1018 0H862V668Q862 807 818 869T678 932Q535 932 371 754V0H215V1042H371V889Q539 1067 725 1067Q1018 1067 1018 713V0ZM917 1466L718 1165H493L294 1466H407L605 1274L804 1466H917Z"  />
<glyph unicode="&#x149;" d="M104 1422Q64 1427 38 1455T12 1521Q12 1559 37 1586T100 1614Q144 1614 175 1579T207 1492Q207 1344 40 1258L10 1315Q104 1360 104 1422ZM1018 0H862V668Q862 807 818 869T678 932Q535 932 371 754V0H215V1042H371V889Q539 1067 725 1067Q1018 1067 1018 713V0Z"  />
<glyph unicode="&#x14C;" d="M612 1438Q849 1438 973 1251T1098 705Q1098 349 974 161T612 -27Q376 -27 252 160T127 705Q127 1062 251 1250T612 1438ZM612 117Q924 117 924 705Q924 1294 612 1294Q460 1294 381 1142T301 705Q301 418 380 268T612 117ZM954 1554H276V1683H954V1554Z"  />
<glyph unicode="&#x14D;" d="M614 1067Q829 1067 956 917T1083 522Q1083 275 956 124T614 -27Q398 -27 272 123T145 522Q145 768 272 917T614 1067ZM614 109Q756 109 838 229T920 520Q920 700 839 816T614 932Q469 932 389 818T309 520Q309 346 390 228T614 109ZM954 1223H276V1352H954V1223Z"  />
<glyph unicode="&#x14E;" d="M612 1438Q849 1438 973 1251T1098 705Q1098 349 974 161T612 -27Q376 -27 252 160T127 705Q127 1062 251 1250T612 1438ZM612 117Q924 117 924 705Q924 1294 612 1294Q460 1294 381 1142T301 705Q301 418 380 268T612 117ZM899 1818Q875 1689 801 1621T612 1553Q370 1553 319 1818H457Q486 1691 614 1691Q732 1691 760 1818H899Z"  />
<glyph unicode="&#x14F;" d="M614 1067Q829 1067 956 917T1083 522Q1083 275 956 124T614 -27Q398 -27 272 123T145 522Q145 768 272 917T614 1067ZM614 109Q756 109 838 229T920 520Q920 700 839 816T614 932Q469 932 389 818T309 520Q309 346 390 228T614 109ZM899 1430Q875 1301 801 1233T612 1165Q370 1165 319 1430H457Q486 1303 614 1303Q732 1303 760 1430H899Z"  />
<glyph unicode="&#x150;" d="M612 1438Q849 1438 973 1251T1098 705Q1098 349 974 161T612 -27Q376 -27 252 160T127 705Q127 1062 251 1250T612 1438ZM612 117Q924 117 924 705Q924 1294 612 1294Q460 1294 381 1142T301 705Q301 418 380 268T612 117ZM1007 1853L778 1552H665L803 1853H1007ZM680 1853L450 1552H338L475 1853H680Z"  />
<glyph unicode="&#x151;" d="M614 1067Q829 1067 956 917T1083 522Q1083 275 956 124T614 -27Q398 -27 272 123T145 522Q145 768 272 917T614 1067ZM614 109Q756 109 838 229T920 520Q920 700 839 816T614 932Q469 932 389 818T309 520Q309 346 390 228T614 109ZM1007 1466L778 1165H665L803 1466H1007ZM680 1466L450 1165H338L475 1466H680Z"  />
<glyph unicode="&#x152;" d="M1108 0H596Q381 0 254 193T127 705Q127 1031 253 1221T612 1411H1102V1268H750V829H1079V690H750V143H1108V0ZM596 143V1266Q444 1266 373 1133T301 705Q301 441 373 292T596 143Z"  />
<glyph unicode="&#x153;" d="M1186 35Q1057 -27 928 -27Q780 -27 686 61Q589 -27 461 -27Q282 -27 168 130T53 520Q53 762 164 914T461 1067Q587 1067 684 995Q761 1067 877 1067Q1014 1067 1099 943T1184 580V516H696V498Q696 310 755 210T928 109Q1036 109 1163 160L1186 35ZM1010 643Q1010 780 975 857T877 934Q709 934 694 643H1010ZM614 162Q537 318 537 553Q537 743 598 877Q529 932 461 932Q217 932 217 520Q217 322 279 216T461 109Q546 109 614 162Z"  />
<glyph unicode="&#x154;" d="M1174 0H969L555 641H373V0H209V1411H608Q809 1411 925 1314T1042 1042Q1042 913 957 813T723 676L1174 0ZM373 784H580Q710 784 791 854T872 1032Q872 1268 584 1268H373V784ZM843 1853L531 1552H419L617 1853H843Z"  />
<glyph unicode="&#x155;" d="M1034 1014L971 864Q868 909 793 909Q724 909 658 870T537 757T481 674V0H326V1042H481V831Q606 1067 805 1067Q923 1067 1034 1014ZM903 1466L591 1165H479L677 1466H903Z"  />
<glyph unicode="&#x156;" d="M1174 0H969L555 641H373V0H209V1411H608Q809 1411 925 1314T1042 1042Q1042 913 957 813T723 676L1174 0ZM373 784H580Q710 784 791 854T872 1032Q872 1268 584 1268H373V784ZM628 -282Q588 -277 562 -249T536 -183Q536 -145 561 -118T624 -90Q668 -90 699 -125T731 -212Q731 -360 564 -446L534 -389Q628 -344 628 -282Z"  />
<glyph unicode="&#x157;" d="M1034 1014L971 864Q868 909 793 909Q724 909 658 870T537 757T481 674V0H326V1042H481V831Q606 1067 805 1067Q923 1067 1034 1014ZM671 -282Q631 -277 605 -249T579 -183Q579 -145 604 -118T667 -90Q711 -90 742 -125T774 -212Q774 -360 607 -446L577 -389Q671 -344 671 -282Z"  />
<glyph unicode="&#x158;" d="M1174 0H969L555 641H373V0H209V1411H608Q809 1411 925 1314T1042 1042Q1042 913 957 813T723 676L1174 0ZM373 784H580Q710 784 791 854T872 1032Q872 1268 584 1268H373V784ZM892 1853L693 1552H468L269 1853H382L580 1661L779 1853H892Z"  />
<glyph unicode="&#x159;" d="M1034 1014L971 864Q868 909 793 909Q724 909 658 870T537 757T481 674V0H326V1042H481V831Q606 1067 805 1067Q923 1067 1034 1014ZM969 1466L770 1165H545L346 1466H459L657 1274L856 1466H969Z"  />
<glyph unicode="&#x15A;" d="M915 1255Q789 1298 676 1298Q548 1298 468 1240T387 1073Q387 945 598 848Q754 776 804 748T907 671T990 556T1022 406Q1022 200 884 87T557 -27Q375 -27 238 45L272 186Q433 113 553 113Q693 113 777 185T862 385Q862 479 807 544T604 678Q452 748 408 773T319 844T251 945T227 1067Q227 1242 353 1340T672 1438Q813 1438 952 1395L915 1255ZM897 1853L585 1552H473L671 1853H897Z"  />
<glyph unicode="&#x15B;" d="M909 893Q778 936 662 936Q535 936 461 894T387 780Q387 735 421 702T557 639L706 596Q809 567 874 527T971 429T1004 295Q1004 146 879 60T561 -27Q369 -27 244 31L274 166Q405 104 555 104Q685 104 766 152T848 281Q848 335 808 377T617 466Q496 503 439 521T333 576T259 662T233 774Q233 909 351 988T664 1067Q790 1067 944 1024L909 893ZM883 1466L571 1165H459L657 1466H883Z"  />
<glyph unicode="&#x15C;" d="M915 1255Q789 1298 676 1298Q548 1298 468 1240T387 1073Q387 945 598 848Q754 776 804 748T907 671T990 556T1022 406Q1022 200 884 87T557 -27Q375 -27 238 45L272 186Q433 113 553 113Q693 113 777 185T862 385Q862 479 807 544T604 678Q452 748 408 773T319 844T251 945T227 1067Q227 1242 353 1340T672 1438Q813 1438 952 1395L915 1255ZM932 1553H819L621 1746L422 1553H309L508 1854H733L932 1553Z"  />
<glyph unicode="&#x15D;" d="M909 893Q778 936 662 936Q535 936 461 894T387 780Q387 735 421 702T557 639L706 596Q809 567 874 527T971 429T1004 295Q1004 146 879 60T561 -27Q369 -27 244 31L274 166Q405 104 555 104Q685 104 766 152T848 281Q848 335 808 377T617 466Q496 503 439 521T333 576T259 662T233 774Q233 909 351 988T664 1067Q790 1067 944 1024L909 893ZM932 1165H819L621 1358L422 1165H309L508 1466H733L932 1165Z"  />
<glyph unicode="&#x15E;" d="M915 1255Q789 1298 676 1298Q548 1298 468 1240T387 1073Q387 945 598 848Q754 776 804 748T907 671T990 556T1022 406Q1022 200 884 87T557 -27Q375 -27 238 45L272 186Q433 113 553 113Q693 113 777 185T862 385Q862 479 807 544T604 678Q452 748 408 773T319 844T251 945T227 1067Q227 1242 353 1340T672 1438Q813 1438 952 1395L915 1255ZM621 -282Q581 -277 555 -249T529 -183Q529 -145 554 -118T617 -90Q661 -90 692 -125T724 -212Q724 -360 557 -446L527 -389Q621 -344 621 -282Z"  />
<glyph unicode="&#x15F;" d="M909 893Q778 936 662 936Q535 936 461 894T387 780Q387 735 421 702T557 639L706 596Q809 567 874 527T971 429T1004 295Q1004 146 879 60T561 -27Q369 -27 244 31L274 166Q405 104 555 104Q685 104 766 152T848 281Q848 335 808 377T617 466Q496 503 439 521T333 576T259 662T233 774Q233 909 351 988T664 1067Q790 1067 944 1024L909 893ZM621 -282Q581 -277 555 -249T529 -183Q529 -145 554 -118T617 -90Q661 -90 692 -125T724 -212Q724 -360 557 -446L527 -389Q621 -344 621 -282Z"  />
<glyph unicode="&#x160;" d="M915 1255Q789 1298 676 1298Q548 1298 468 1240T387 1073Q387 945 598 848Q754 776 804 748T907 671T990 556T1022 406Q1022 200 884 87T557 -27Q375 -27 238 45L272 186Q433 113 553 113Q693 113 777 185T862 385Q862 479 807 544T604 678Q452 748 408 773T319 844T251 945T227 1067Q227 1242 353 1340T672 1438Q813 1438 952 1395L915 1255ZM945 1835L746 1534H521L322 1835H435L633 1643L832 1835H945Z"  />
<glyph unicode="&#x161;" d="M909 893Q778 936 662 936Q535 936 461 894T387 780Q387 735 421 702T557 639L706 596Q809 567 874 527T971 429T1004 295Q1004 146 879 60T561 -27Q369 -27 244 31L274 166Q405 104 555 104Q685 104 766 152T848 281Q848 335 808 377T617 466Q496 503 439 521T333 576T259 662T233 774Q233 909 351 988T664 1067Q790 1067 944 1024L909 893ZM940 1466L741 1165H516L317 1466H430L628 1274L827 1466H940Z"  />
<glyph unicode="&#x162;" d="M1133 1278H698V0H535V1278H98V1411H1133V1278ZM613 -282Q573 -277 547 -249T521 -183Q521 -145 546 -118T609 -90Q653 -90 684 -125T716 -212Q716 -360 549 -446L519 -389Q613 -344 613 -282Z"  />
<glyph unicode="&#x163;" d="M1028 47Q871 -25 719 -25Q440 -25 440 270V907H240V1042H440V1327H592V1042H946V907H592V311Q592 216 634 164T748 111Q876 111 1001 168L1028 47ZM682 -282Q642 -277 616 -249T590 -183Q590 -145 615 -118T678 -90Q722 -90 753 -125T785 -212Q785 -360 618 -446L588 -389Q682 -344 682 -282Z"  />
<glyph unicode="&#x164;" d="M1133 1278H698V0H535V1278H98V1411H1133V1278ZM926 1853L727 1552H502L303 1853H416L614 1661L813 1853H926Z"  />
<glyph unicode="&#x165;" d="M879 47Q722 -25 570 -25Q291 -25 291 270V907H91V1042H291V1327H443V1042H797V907H443V311Q443 216 485 164T599 111Q727 111 852 168L879 47ZM1097 1291Q1057 1296 1031 1324T1005 1390Q1005 1428 1030 1455T1093 1483Q1137 1483 1168 1448T1200 1361Q1200 1213 1033 1127L1003 1184Q1097 1229 1097 1291Z"  />
<glyph unicode="&#x166;" d="M1133 1278H698V893H997V750H698V0H535V750H236V893H535V1278H98V1411H1133V1278Z"  />
<glyph unicode="&#x167;" d="M1028 47Q871 -25 719 -25Q440 -25 440 270V557H252V680H440V907H240V1042H440V1327H592V1042H946V907H592V680H928V557H592V311Q592 216 634 164T748 111Q876 111 1001 168L1028 47Z"  />
<glyph unicode="&#x168;" d="M1020 444Q1020 199 921 86T618 -27Q209 -27 209 440V1411H373V455Q373 117 618 117Q741 117 798 197T856 457V1411H1020V444ZM970 1782Q936 1552 778 1552Q722 1552 604 1609Q503 1657 462 1657Q423 1657 394 1627T358 1552H274Q308 1782 466 1782Q522 1782 640 1725Q741 1677 782 1677Q821 1677 850 1707T886 1782H970Z"  />
<glyph unicode="&#x169;" d="M1016 0H860V154Q692 -25 506 -25Q213 -25 213 330V1042H369V375Q369 242 411 177T553 111Q696 111 860 289V1042H1016V0ZM970 1430Q936 1200 778 1200Q722 1200 604 1257Q503 1305 462 1305Q423 1305 394 1275T358 1200H274Q308 1430 466 1430Q522 1430 640 1373Q741 1325 782 1325Q821 1325 850 1355T886 1430H970Z"  />
<glyph unicode="&#x16A;" d="M1020 444Q1020 199 921 86T618 -27Q209 -27 209 440V1411H373V455Q373 117 618 117Q741 117 798 197T856 457V1411H1020V444ZM954 1554H276V1683H954V1554Z"  />
<glyph unicode="&#x16B;" d="M1016 0H860V154Q692 -25 506 -25Q213 -25 213 330V1042H369V375Q369 242 411 177T553 111Q696 111 860 289V1042H1016V0ZM954 1223H276V1352H954V1223Z"  />
<glyph unicode="&#x16C;" d="M1020 444Q1020 199 921 86T618 -27Q209 -27 209 440V1411H373V455Q373 117 618 117Q741 117 798 197T856 457V1411H1020V444ZM899 1818Q875 1689 801 1621T612 1553Q370 1553 319 1818H457Q486 1691 614 1691Q732 1691 760 1818H899Z"  />
<glyph unicode="&#x16D;" d="M1016 0H860V154Q692 -25 506 -25Q213 -25 213 330V1042H369V375Q369 242 411 177T553 111Q696 111 860 289V1042H1016V0ZM899 1430Q875 1301 801 1233T612 1165Q370 1165 319 1430H457Q486 1303 614 1303Q732 1303 760 1430H899Z"  />
<glyph unicode="&#x16E;" d="M1020 444Q1020 199 921 86T618 -27Q209 -27 209 440V1411H373V455Q373 117 618 117Q741 117 798 197T856 457V1411H1020V444ZM614 1933Q692 1933 748 1877T805 1743Q805 1665 749 1609T614 1552Q536 1552 480 1608T424 1743Q424 1820 480 1876T614 1933ZM614 1630Q660 1630 693 1663T727 1743Q727 1788 694 1821T614 1855Q569 1855 536 1822T502 1743Q502 1696 535 1663T614 1630Z"  />
<glyph unicode="&#x16F;" d="M1016 0H860V154Q692 -25 506 -25Q213 -25 213 330V1042H369V375Q369 242 411 177T553 111Q696 111 860 289V1042H1016V0ZM614 1536Q692 1536 748 1480T805 1346Q805 1268 749 1212T614 1155Q536 1155 480 1211T424 1346Q424 1423 480 1479T614 1536ZM614 1233Q660 1233 693 1266T727 1346Q727 1391 694 1424T614 1458Q569 1458 536 1425T502 1346Q502 1299 535 1266T614 1233Z"  />
<glyph unicode="&#x170;" d="M1020 444Q1020 199 921 86T618 -27Q209 -27 209 440V1411H373V455Q373 117 618 117Q741 117 798 197T856 457V1411H1020V444ZM993 1853L764 1552H651L789 1853H993ZM666 1853L436 1552H324L461 1853H666Z"  />
<glyph unicode="&#x171;" d="M1016 0H860V154Q692 -25 506 -25Q213 -25 213 330V1042H369V375Q369 242 411 177T553 111Q696 111 860 289V1042H1016V0ZM993 1466L764 1165H651L789 1466H993ZM666 1466L436 1165H324L461 1466H666Z"  />
<glyph unicode="&#x172;" d="M829 -334Q757 -367 680 -367Q589 -367 531 -316T473 -182Q473 -100 543 -23Q209 18 209 440V1411H373V455Q373 117 618 117Q741 117 798 197T856 457V1411H1020V444Q1020 207 926 94T645 -27Q594 -98 594 -141Q594 -268 717 -268Q750 -268 829 -246V-334Z"  />
<glyph unicode="&#x173;" d="M1126 -334Q1054 -367 977 -367Q885 -367 828 -316T770 -182Q770 -92 860 0V154Q692 -25 506 -25Q213 -25 213 330V1042H369V375Q369 242 411 177T553 111Q696 111 860 289V1042H1016V0H963Q891 -89 891 -141Q891 -268 1014 -268Q1047 -268 1126 -246V-334Z"  />
<glyph unicode="&#x174;" d="M1186 1411L1006 0H854L614 795L375 0H219L43 1411H205L324 264L532 958H696L905 262L1026 1411H1186ZM932 1553H819L621 1746L422 1553H309L508 1854H733L932 1553Z"  />
<glyph unicode="&#x175;" d="M1141 1042L991 0H872L627 590L381 0H262L115 1042H270Q353 312 356 276L547 729H707L897 279L981 1042H1141ZM932 1165H819L621 1358L422 1165H309L508 1466H733L932 1165Z"  />
<glyph unicode="&#x176;" d="M1139 1411L698 604V0H535V604L94 1411H279L616 776L954 1411H1139ZM932 1553H819L621 1746L422 1553H309L508 1854H733L932 1553Z"  />
<glyph unicode="&#x177;" d="M1065 1042L670 0Q584 -230 500 -321T307 -412Q211 -412 117 -377L143 -252Q219 -276 279 -276Q363 -276 417 -211T526 2L135 1042H305L600 211L895 1042H1065ZM932 1165H819L621 1358L422 1165H309L508 1466H733L932 1165Z"  />
<glyph unicode="&#x178;" d="M1139 1411L698 604V0H535V604L94 1411H279L616 776L954 1411H1139ZM821 1759Q866 1759 896 1728T926 1650Q926 1607 895 1575T821 1542Q776 1542 745 1574T713 1650Q713 1697 744 1728T821 1759ZM426 1759Q472 1759 502 1729T532 1650Q532 1606 501 1574T426 1542Q382 1542 350 1574T317 1650Q317 1697 349 1728T426 1759Z"  />
<glyph unicode="&#x179;" d="M1040 1294L369 143H1028V0H182V115L850 1268H211V1411H1040V1294ZM883 1853L571 1552H459L657 1853H883Z"  />
<glyph unicode="&#x17A;" d="M1004 0H203V84L797 905H217V1042H1004V965L410 137H1004V0ZM863 1466L551 1165H439L637 1466H863Z"  />
<glyph unicode="&#x17B;" d="M1040 1294L369 143H1028V0H182V115L850 1268H211V1411H1040V1294ZM614 1743Q654 1743 681 1716T709 1648Q709 1608 682 1580T614 1552Q575 1552 547 1580T518 1648Q518 1688 546 1715T614 1743Z"  />
<glyph unicode="&#x17C;" d="M1004 0H203V84L797 905H217V1042H1004V965L410 137H1004V0ZM614 1438Q654 1438 681 1411T709 1343Q709 1303 682 1275T614 1247Q575 1247 547 1275T518 1343Q518 1383 546 1410T614 1438Z"  />
<glyph unicode="&#x17D;" d="M1040 1294L369 143H1028V0H182V115L850 1268H211V1411H1040V1294ZM926 1835L727 1534H502L303 1835H416L614 1643L813 1835H926Z"  />
<glyph unicode="&#x17E;" d="M1004 0H203V84L797 905H217V1042H1004V965L410 137H1004V0ZM926 1466L727 1165H502L303 1466H416L614 1274L813 1466H926Z"  />
<glyph unicode="&#x192;" d="M1143 1409L1112 1284Q1043 1305 989 1305Q920 1305 878 1267T793 1042H1028V918H766L588 115Q543 -91 460 -186T246 -281Q184 -281 82 -250L125 -119Q191 -141 242 -141Q311 -141 355 -91T432 113L608 918H432V1042H635Q684 1271 767 1354T985 1438Q1062 1438 1143 1409Z"  />
<glyph unicode="&#x2C6;" d="M932 1165H819L621 1358L422 1165H309L508 1466H733L932 1165Z"  />
<glyph unicode="&#x2C7;" d="M926 1466L727 1165H502L303 1466H416L614 1274L813 1466H926Z"  />
<glyph unicode="&#x2C9;" d="M954 1282H276V1411H954V1282Z"  />
<glyph unicode="&#x2D8;" d="M899 1430Q875 1301 801 1233T612 1165Q370 1165 319 1430H457Q486 1303 614 1303Q732 1303 760 1430H899Z"  />
<glyph unicode="&#x2D9;" d="M614 1438Q654 1438 681 1411T709 1343Q709 1303 682 1275T614 1247Q575 1247 547 1275T518 1343Q518 1383 546 1410T614 1438Z"  />
<glyph unicode="&#x2DA;" d="M614 1536Q692 1536 748 1480T805 1346Q805 1268 749 1212T614 1155Q536 1155 480 1211T424 1346Q424 1423 480 1479T614 1536ZM614 1233Q660 1233 693 1266T727 1346Q727 1391 694 1424T614 1458Q569 1458 536 1425T502 1346Q502 1299 535 1266T614 1233Z"  />
<glyph unicode="&#x2DB;" d="M809 -334Q736 -367 659 -367Q568 -367 511 -316T453 -182Q453 -92 543 0H645Q573 -89 573 -141Q573 -268 696 -268Q732 -268 809 -246V-334Z"  />
<glyph unicode="&#x2DC;" d="M989 1430Q955 1200 797 1200Q741 1200 623 1257Q522 1305 481 1305Q442 1305 413 1275T377 1200H293Q327 1430 485 1430Q541 1430 659 1373Q760 1325 801 1325Q840 1325 869 1355T905 1430H989Z"  />
<glyph unicode="&#x2DD;" d="M952 1466L723 1165H610L748 1466H952ZM625 1466L395 1165H283L420 1466H625Z"  />
<glyph unicode="&#x394;" d="M1176 0H57L518 1411H715L1176 0ZM958 143L616 1221L272 143H958Z"  />
<glyph unicode="&#x3A9;" d="M365 133Q271 198 199 363T127 727Q127 1052 255 1245T612 1438Q838 1438 968 1248T1098 727Q1098 531 1027 366T862 133H1071V0H690V131Q799 179 866 343T934 727Q934 1000 849 1152T612 1305Q460 1305 376 1153T291 727Q291 515 363 346T547 131V0H154V133H365Z"  />
<glyph unicode="&#x3BC;" d="M1047 0H885Q862 57 862 117V135Q834 61 761 18T614 -25Q532 -25 467 10T371 109V-412H215V1042H371V414Q371 279 437 196T614 113Q725 113 793 199T862 414V1042H1018V242Q1018 99 1047 0Z"  />
<glyph unicode="&#x3C0;" d="M1167 907H983V0H827V907H430V0H274V907H203Q138 907 61 885V1022Q126 1042 197 1042H1167V907Z"  />
<glyph unicode="&#x2013;" d="M1004 487H184V639H1004V487Z"  />
<glyph unicode="&#x2014;" d="M1229 487H0V639H1229V487Z"  />
<glyph unicode="&#x2018;" d="M735 1368Q612 1308 612 1227Q665 1221 699 1185T733 1100Q733 1049 700 1014T616 979Q561 979 520 1024T479 1135Q479 1330 696 1440L735 1368Z"  />
<glyph unicode="&#x2019;" d="M600 1190Q547 1196 513 1232T479 1317Q479 1368 512 1403T596 1438Q652 1438 692 1393T733 1282Q733 1087 516 977L477 1049Q600 1109 600 1190Z"  />
<glyph unicode="&#x201A;" d="M616 -27Q564 -21 530 16T496 100Q496 151 529 186T612 221Q668 221 709 176T750 66Q750 -130 532 -240L494 -168Q616 -108 616 -27Z"  />
<glyph unicode="&#x201C;" d="M915 1368Q793 1308 793 1227Q845 1221 879 1185T913 1100Q913 1049 880 1014T797 979Q741 979 700 1024T659 1135Q659 1330 877 1440L915 1368ZM549 1368Q426 1308 426 1227Q479 1221 513 1185T547 1100Q547 1049 514 1014T430 979Q374 979 334 1024T293 1135Q293 1330 510 1440L549 1368Z"  />
<glyph unicode="&#x201D;" d="M788 1190Q736 1196 702 1232T668 1317Q668 1368 701 1403T784 1438Q840 1438 881 1393T922 1282Q922 1087 705 977L666 1049Q788 1109 788 1190ZM422 1190Q369 1196 335 1232T301 1317Q301 1368 334 1403T418 1438Q474 1438 514 1393T555 1282Q555 1087 338 977L299 1049Q422 1109 422 1190Z"  />
<glyph unicode="&#x201E;" d="M788 -27Q736 -21 702 16T668 100Q668 151 701 186T784 221Q840 221 881 176T922 66Q922 -130 705 -240L666 -168Q788 -108 788 -27ZM422 -27Q369 -21 335 16T301 100Q301 151 334 186T418 221Q474 221 514 176T555 66Q555 -130 338 -240L299 -168Q422 -108 422 -27Z"  />
<glyph unicode="&#x2020;" d="M1008 819H874L686 856V-350H541V856L352 819H219V993H352L535 956L526 1214V1411H700V1214L692 956L874 993H1008V819Z"  />
<glyph unicode="&#x2021;" d="M1008 74H874L692 111L700 -154V-350H526V-154L535 111L352 74H219V248H352L541 211V850L352 813H219V987H352L535 956L526 1214V1411H700V1214L692 956L874 987H1008V813H874L686 850V211L874 248H1008V74Z"  />
<glyph unicode="&#x2022;" d="M612 952Q716 952 791 877T866 698Q866 594 791 519T612 444Q508 444 433 519T358 698Q358 802 433 877T612 952Z"  />
<glyph unicode="&#x2026;" d="M1024 229Q1077 229 1113 193T1149 104Q1149 50 1113 12T1024 -27Q973 -27 937 11T901 104Q901 158 936 193T1024 229ZM616 229Q669 229 705 193T741 104Q741 50 705 12T616 -27Q565 -27 530 11T494 104Q494 158 529 193T616 229ZM203 229Q255 229 291 193T328 104Q328 50 292 12T203 -27Q151 -27 116 11T80 104Q80 158 115 193T203 229Z"  />
<glyph unicode="&#x2030;" d="M252 1438Q373 1438 438 1358T504 1135Q504 992 439 912T252 831Q130 831 65 911T0 1135Q0 1271 63 1354T252 1438ZM252 952Q360 952 360 1135Q360 1317 252 1317Q143 1317 143 1135Q143 952 252 952ZM1057 928L0 512V645L1057 1065V928ZM977 580Q1098 580 1163 500T1229 276Q1229 134 1164 54T977 -27Q855 -27 790 53T725 276Q725 419 790 499T977 580ZM977 94Q1085 94 1085 276Q1085 459 977 459Q868 459 868 276Q868 94 977 94ZM428 580Q549 580 614 500T680 276Q680 140 617 57T428 -27Q306 -27 241 53T176 276Q176 419 241 499T428 580ZM428 94Q537 94 537 276Q537 459 428 459Q319 459 319 276Q319 94 428 94Z"  />
<glyph unicode="&#x2039;" d="M854 139L762 59L381 502V623L762 1063L854 983L496 561L854 139Z"  />
<glyph unicode="&#x203A;" d="M848 502L467 59L375 139L733 561L375 983L467 1063L848 623V502Z"  />
<glyph unicode="&#x2044;" d="M995 1411L352 0H236L877 1411H995Z"  />
<glyph unicode="&#x2074;" d="M762 856H676V696H549V856H242V942L528 1409H676V967H762V856ZM549 967V1249L375 967H549Z"  />
<glyph unicode="&#x20AC;" d="M1071 88Q905 -27 686 -27Q217 -27 141 504H0L72 635H129Q127 656 127 705Q127 755 129 778H0L71 909H141Q221 1438 686 1438Q788 1438 888 1412T1049 1343L995 1214Q854 1294 686 1294Q367 1294 313 909H1016L944 778H303Q301 755 301 705Q301 656 303 635H956L885 504H315Q375 117 686 117Q849 117 1020 217L1071 88Z"  />
<glyph unicode="&#x2113;" d="M596 422Q616 265 651 183T729 100Q784 100 872 166L913 47Q821 -41 731 -41Q630 -41 555 60T440 356Q379 335 311 319L270 440Q369 467 420 485Q406 636 406 774Q406 1066 484 1243T674 1421Q778 1421 852 1289T926 975Q926 601 596 422ZM584 565Q774 693 774 975Q774 1098 746 1186T674 1274Q636 1274 607 1141T578 774Q578 660 584 565Z"  />
<glyph unicode="&#x2122;" d="M1159 668H1028V1217L891 907H797L666 1217V668H545V1411H690L844 1047L1006 1411H1159V668ZM487 1303H315V668H188V1303H16V1411H487V1303Z"  />
<glyph unicode="&#x2126;" d="M365 133Q271 198 199 363T127 727Q127 1052 255 1245T612 1438Q838 1438 968 1248T1098 727Q1098 531 1027 366T862 133H1071V0H690V131Q799 179 866 343T934 727Q934 1000 849 1152T612 1305Q460 1305 376 1153T291 727Q291 515 363 346T547 131V0H154V133H365Z"  />
<glyph unicode="&#x212E;" d="M321 531V160Q449 39 619 39Q873 39 1014 285L1086 242Q985 100 882 33T619 -34Q382 -34 236 126T90 531Q90 778 237 937T619 1096Q833 1096 985 954T1148 531H321ZM917 605V902Q789 1023 617 1023Q442 1023 321 901V605H917Z"  />
<glyph unicode="&#x2202;" d="M436 1446Q478 1470 552 1489T680 1509Q880 1509 995 1373T1110 995Q1110 577 926 276T463 -25Q298 -25 202 85T106 377Q106 654 273 855T676 1057Q741 1057 815 1027T946 936V975Q946 1165 878 1271T688 1378Q589 1378 477 1325L436 1446ZM926 770Q874 840 795 881T647 922Q476 922 373 760T270 381Q270 257 327 187T494 117Q642 117 756 293T926 770Z"  />
<glyph unicode="&#x2206;" d="M1176 0H57L518 1411H715L1176 0ZM961 133L616 1237L270 133H961Z"  />
<glyph unicode="&#x220F;" d="M1079 -281H915V1268H313V-281H150V1411H1079V-281Z"  />
<glyph unicode="&#x2211;" d="M1143 -283H111V-139L604 588L135 1284V1411H1104V1268H332L788 588L309 -119H1143V-283Z"  />
<glyph unicode="&#x2212;" d="M1087 655H141V786H1087V655Z"  />
<glyph unicode="&#x2215;" d="M995 1411L352 0H236L877 1411H995Z"  />
<glyph unicode="&#x2219;" d="M608 803Q661 803 697 767T733 678Q733 624 697 586T608 547Q557 547 521 585T485 678Q485 731 520 767T608 803Z"  />
<glyph unicode="&#x221A;" d="M1229 1470H1083L651 -270H479L270 375L72 303L31 430L360 545L559 -88L977 1602H1229V1470Z"  />
<glyph unicode="&#x221E;" d="M592 836Q683 972 747 1020T883 1069Q1010 1069 1093 974T1176 725Q1176 568 1094 477T885 385Q809 385 744 434T592 616Q456 424 297 424Q191 424 123 507T55 725Q55 859 123 937T297 1016Q465 1016 592 836ZM668 725Q753 603 796 564T885 524Q955 524 995 578T1036 727Q1036 823 996 875T885 928Q845 928 797 885T668 725ZM514 725Q405 887 307 887Q257 887 222 843T186 725Q186 655 219 610T307 565Q400 565 514 725Z"  />
<glyph unicode="&#x222B;" d="M999 1460L967 1352Q882 1380 809 1380Q741 1380 716 1326T690 1155V-55Q690 -223 627 -301T420 -379Q336 -379 227 -336L260 -227Q351 -258 418 -258Q485 -258 511 -204T537 -31V1180Q537 1354 603 1427T807 1501Q896 1501 999 1460Z"  />
<glyph unicode="&#x2248;" d="M1163 905Q1008 774 864 774Q780 774 608 852Q432 930 358 930Q242 930 68 793V936Q225 1067 373 1067Q459 1067 631 989Q803 911 877 911Q994 911 1163 1049V905ZM1163 512Q1008 381 864 381Q780 381 608 459Q432 537 358 537Q242 537 68 399V543Q225 674 373 674Q459 674 631 596Q803 518 877 518Q994 518 1163 655V512Z"  />
<glyph unicode="&#x2260;" d="M1087 457H563L362 -27H215L416 457H141V588H471L584 858H141V989H639L825 1438H975L786 989H1087V858H731L618 588H1087V457Z"  />
<glyph unicode="&#x2264;" d="M975 215L227 664V784L975 1229V1085L375 719L975 362V215ZM975 0H227V131H975V0Z"  />
<glyph unicode="&#x2265;" d="M1014 666L266 217V365L866 721L266 1087V1231L1014 786V666ZM1014 0H266V131H1014V0Z"  />
<glyph unicode="&#x25CA;" d="M1157 766L614 0L72 766L614 1532L1157 766ZM1001 766L614 1303L225 766L614 213L1001 766Z"  />
<glyph unicode="&#xF004;" d="M647 -282Q607 -277 581 -249T555 -183Q555 -145 580 -118T643 -90Q687 -90 718 -125T750 -212Q750 -360 583 -446L553 -389Q647 -344 647 -282Z"  />
<glyph unicode="&#xF005;" d="M647 -282Q607 -277 581 -249T555 -183Q555 -145 580 -118T643 -90Q687 -90 718 -125T750 -212Q750 -360 583 -446L553 -389Q647 -344 647 -282Z"  />
<glyph unicode="&#xFB01;" d="M987 0H831V907H426V0H270V907H29V1042H270V1077Q270 1276 338 1356T573 1436Q681 1436 813 1395L772 1268Q661 1300 573 1300Q489 1300 458 1253T426 1061V1042H987V0Z"  />
<glyph unicode="&#xFB02;" d="M987 0H831V1272Q666 1300 588 1300Q496 1300 461 1248T426 1061V1042H707V907H426V0H270V907H29V1042H270V1077Q270 1270 343 1353T588 1436Q630 1436 703 1427L834 1411H987V0Z"  />


</font>
</defs>
</svg>
